<svg width="19" height="20" viewBox="0 0 19 20" fill="none" xmlns="http://www.w3.org/2000/svg">
<path d="M5.1875 12.9375C6.50241 14.2524 8.63431 14.2524 9.94922 12.9375L15.5195 7.36719C15.8917 6.99504 15.8917 6.39168 15.5195 6.01953C15.1474 5.64739 14.544 5.64739 14.1719 6.01953L9.27539 10.916C8.33262 11.8588 6.8041 11.8588 5.86133 10.916L4.82812 9.88281C4.45598 9.51067 3.85261 9.51067 3.48047 9.88281C3.10832 10.255 3.10832 10.8583 3.48047 11.2305L5.1875 12.9375ZM16.1934 0.943359C16.7025 0.943359 17.1517 1.13802 17.541 1.52734C17.9303 1.91667 18.125 2.36589 18.125 2.875V15.2734C18.125 15.9023 17.8405 16.4264 17.2715 16.8457C12.57 19.9981 6.42998 19.9981 1.72852 16.8457C1.15951 16.4264 0.875 15.9023 0.875 15.2734V2.875C0.875 2.36589 1.06966 1.91667 1.45898 1.52734C1.84831 1.13802 2.29753 0.943359 2.80664 0.943359H16.1934Z" fill="#BBD177"/>
</svg>
