<svg width="793" height="533" viewBox="0 0 793 533" fill="none" xmlns="http://www.w3.org/2000/svg">
<path d="M792.5 487.36H0.5V488.36H792.5V487.36Z" fill="white"/>
<path d="M713.142 512.859H660.711V513.176H713.142V512.859Z" fill="#EBEBEB"/>
<path d="M525.121 517.294H511.34V517.611H525.121V517.294Z" fill="#EBEBEB"/>
<path d="M659.127 498.288H628.714V498.605H659.127V498.288Z" fill="#EBEBEB"/>
<path d="M152.089 500.822H83.6599V501.139H152.089V500.822Z" fill="#EBEBEB"/>
<path d="M176.165 500.822H166.186V501.139H176.165V500.822Z" fill="#EBEBEB"/>
<path d="M357.217 507.633H208.796V507.95H357.217V507.633Z" fill="#EBEBEB"/>
<path d="M201.193 57.9836H106.628V198.786H201.193V57.9836Z" fill="#E6E6E6"/>
<path d="M201.151 198.758H202.577L202.577 57.9559H201.151L201.151 198.758Z" fill="#E0E0E0"/>
<path d="M195.699 193.481L195.699 63.2904L111.906 63.2904L111.906 193.481L195.699 193.481Z" fill="#AFC95F"/>
<path d="M169.619 117.635C178.341 108.914 178.341 94.7742 169.619 86.0531C160.897 77.332 146.756 77.332 138.034 86.0531C129.311 94.7742 129.311 108.914 138.033 117.635C146.756 126.356 160.897 126.356 169.619 117.635Z" fill="#F0F0F0"/>
<path d="M181.393 137.175H126.111V142.876H181.393V137.175Z" fill="#EBEBEB"/>
<path d="M181.393 152.221H126.111V157.923H181.393V152.221Z" fill="#EBEBEB"/>
<path d="M181.393 167.267H126.111V172.969H181.393V167.267Z" fill="#EBEBEB"/>
<path d="M319.835 78.2584H225.27V219.061H319.835V78.2584Z" fill="#E6E6E6"/>
<path d="M319.823 219.042H321.249V78.2391H319.823V219.042Z" fill="#E0E0E0"/>
<path d="M314.441 213.823V83.6324L230.647 83.6324L230.647 213.823L314.441 213.823Z" fill="#54AEE3"/>
<path d="M294.309 127.206C297.143 115.203 289.71 103.175 277.705 100.341C265.701 97.5064 253.671 104.939 250.837 116.942C248.002 128.945 255.436 140.973 267.44 143.808C279.445 146.642 291.474 139.209 294.309 127.206Z" fill="#F0F0F0"/>
<path d="M300.193 157.448H244.911V163.149H300.193V157.448Z" fill="#EBEBEB"/>
<path d="M300.193 172.494H244.911V178.196H300.193V172.494Z" fill="#EBEBEB"/>
<path d="M300.193 187.54H244.911V193.242H300.193V187.54Z" fill="#EBEBEB"/>
<path d="M652.95 277.66H240.001V282.095H652.95V277.66Z" fill="#EBEBEB"/>
<path d="M653.049 282.21H686.471V277.775H653.049V282.21Z" fill="#E0E0E0"/>
<path d="M652.95 282.095H245.703V487.36H652.95V282.095Z" fill="#2B4C6E"/>
<path d="M336.942 282.095H334.724V487.36H336.942V282.095Z" fill="#E6E6E6"/>
<path d="M444.654 323.908H442.436V487.518H444.654V323.908Z" fill="#E6E6E6"/>
<path d="M335.953 446.818V444.6H245.823V446.818H335.953Z" fill="#E6E6E6"/>
<path d="M335.897 406.216V403.999H245.768V406.216H335.897Z" fill="#E6E6E6"/>
<path d="M336 365.614V363.397H245.87V365.614H336Z" fill="#E6E6E6"/>
<path d="M653.033 324.879V322.661L245.787 322.661V324.879L653.033 324.879Z" fill="#E6E6E6"/>
<path d="M652.991 487.472H682.295V282.208H652.991V487.472Z" fill="#6695B1"/>
<path d="M659.919 3.34093H515.776V208.605H659.919V3.34093Z" fill="#E6D25D"/>
<path d="M661.503 5.71666H514.191C512.766 5.71666 511.657 4.60798 511.657 3.18253C511.657 1.75709 512.766 0.648407 514.191 0.648407H661.503C662.929 0.648407 664.038 1.75709 664.038 3.18253C663.879 4.60798 662.771 5.71666 661.503 5.71666Z" fill="#EBEBEB"/>
<path d="M661.503 210.981H514.191C512.766 210.981 511.657 209.872 511.657 208.447C511.657 207.022 512.766 205.913 514.191 205.913H661.503C662.929 205.913 664.038 207.022 664.038 208.447C663.879 209.872 662.771 210.981 661.503 210.981Z" fill="#EBEBEB"/>
<path d="M593.233 121.336H582.462C573.274 121.336 565.671 113.734 565.671 104.548V70.6538C565.671 61.4676 573.274 53.8652 582.462 53.8652H593.233C602.42 53.8652 610.023 61.4676 610.023 70.6538V104.389C610.023 113.734 602.42 121.336 593.233 121.336Z" fill="#F0F0F0"/>
<path d="M575.175 189.599C569.948 189.599 565.671 185.323 565.671 180.096V108.349C565.671 103.122 569.948 98.846 575.175 98.846C580.402 98.846 584.679 103.122 584.679 108.349V180.096C584.679 185.323 580.402 189.599 575.175 189.599Z" fill="#F0F0F0"/>
<path d="M556.642 116.427C553.474 116.427 550.94 113.892 550.94 110.725V67.8029C550.94 64.6352 553.474 62.1011 556.642 62.1011C559.811 62.1011 562.345 64.6352 562.345 67.8029V110.725C562.187 113.734 559.652 116.427 556.642 116.427Z" fill="#F0F0F0"/>
<path d="M619.052 116.427C615.884 116.427 613.35 113.892 613.35 110.725V67.8029C613.35 64.6352 615.884 62.1011 619.052 62.1011C622.22 62.1011 624.754 64.6352 624.754 67.8029V110.725C624.754 113.734 622.22 116.427 619.052 116.427Z" fill="#F0F0F0"/>
<path d="M600.519 189.599C595.292 189.599 591.015 185.323 591.015 180.096V108.349C591.015 103.122 595.292 98.846 600.519 98.846C605.746 98.846 610.023 103.122 610.023 108.349V180.096C610.023 185.323 605.746 189.599 600.519 189.599Z" fill="#F0F0F0"/>
<path d="M597.656 43.4344C603.1 37.9914 603.1 29.1666 597.656 23.7236C592.213 18.2807 583.387 18.2807 577.943 23.7237C572.5 29.1666 572.5 37.9914 577.943 43.4344C583.387 48.8773 592.213 48.8773 597.656 43.4344Z" fill="#F0F0F0"/>
<path d="M604.321 237.59H537.951V277.66H604.321V237.59Z" fill="#F5F5F5"/>
<path d="M604.229 277.758H620.544V237.687H604.229V277.758Z" fill="#EBEBEB"/>
<path d="M583.729 253.903H574.858V245.034H567.255V253.903H558.385V261.505H567.255V270.375H574.858V261.505H583.729V253.903Z" fill="#FFB573"/>
<path d="M479.819 277.66H473.483V206.705C473.483 193.559 462.711 182.789 449.564 182.789C436.417 182.789 425.646 193.559 425.646 206.705H419.31C419.31 190.075 432.932 176.454 449.564 176.454C466.196 176.454 479.819 190.075 479.819 206.705V277.66Z" fill="#EBEBEB"/>
<path d="M491.54 267.365H485.204V277.819H491.54V267.365Z" fill="#EBEBEB"/>
<path d="M290.055 274.018H283.719V277.66H290.055V274.018Z" fill="#EBEBEB"/>
<path d="M278.809 274.018H272.473V277.66H278.809V274.018Z" fill="#EBEBEB"/>
<path d="M218.775 371.582H136.249V487.36H218.775V371.582Z" fill="#C4C4C4"/>
<path d="M215.607 368.731H139.575V371.582H215.607V368.731Z" fill="#E6E6E6"/>
<path d="M162.385 342.597H192.639C207.054 342.597 218.775 354.318 218.775 368.731H136.249C136.249 354.318 147.97 342.597 162.385 342.597Z" fill="#F5F5F5"/>
<path d="M147.337 474.689H138.625C131.655 474.689 125.953 480.391 125.953 487.36H160.167C160.009 480.391 154.306 474.689 147.337 474.689Z" fill="#E6E6E6"/>
<path d="M396.5 532.182C566.127 532.182 703.637 524.169 703.637 514.285C703.637 504.4 566.127 496.387 396.5 496.387C226.872 496.387 89.3623 504.4 89.3623 514.285C89.3623 524.169 226.872 532.182 396.5 532.182Z" fill="#809E5B"/>
<path d="M304.153 93.2588L297.025 84.3893L287.046 90.7246C287.046 90.7246 291.639 95.6345 297.183 102.445L304.153 93.2588Z" fill="#D8A39D"/>
<path d="M393.807 93.8923C393.332 94.8426 393.174 95.3178 392.698 95.9513L391.748 97.8519C391.114 99.119 390.322 100.386 389.689 101.495C388.263 103.87 386.838 106.246 385.254 108.622C382.244 113.373 378.918 117.967 375.116 122.401C371.314 126.836 367.038 131.112 361.969 134.914C359.434 136.814 356.583 138.556 353.415 140.14L351.039 141.249L348.505 142.199C347.713 142.516 346.762 142.674 345.812 142.991L345.178 143.149C345.02 143.149 344.545 143.308 344.228 143.308C343.594 143.466 342.802 143.625 342.169 143.625C339.476 143.941 337.1 143.625 334.882 143.308C332.823 142.833 330.922 142.358 329.18 141.566C325.695 140.14 323.002 138.556 320.31 136.973C315.082 133.646 310.806 129.845 306.846 126.044C302.727 122.243 299.084 118.283 295.441 114.324C293.698 112.265 291.798 110.364 290.055 108.305C288.313 106.246 286.57 104.187 284.828 101.97L302.41 88.3489C303.836 90.0911 305.42 91.9917 307.004 93.8923C308.588 95.7929 310.172 97.5351 311.914 99.4357C315.241 103.079 318.567 106.405 322.21 109.572C325.695 112.74 329.338 115.591 332.823 117.808C334.566 118.917 336.308 119.709 337.575 120.184C339.001 120.659 339.951 120.659 339.634 120.659C339.634 120.659 339.634 120.659 339.476 120.659C339.476 120.659 339.318 120.659 339.476 120.659L339.793 120.501C340.11 120.342 340.426 120.342 340.902 120.184L342.01 119.709L343.119 119.075C344.545 118.283 346.129 117.175 347.554 116.066C350.564 113.69 353.574 110.523 356.266 107.038C358.959 103.554 361.494 99.5941 363.87 95.6345C364.978 93.5756 366.087 91.5166 367.196 89.4576C367.671 88.3489 368.146 87.3986 368.622 86.2899L369.255 84.7061C369.414 84.231 369.73 83.5974 369.889 83.2807L393.807 93.8923Z" fill="#AFC95F"/>
<path opacity="0.8" d="M393.807 93.8923C393.332 94.8426 393.174 95.3178 392.698 95.9513L391.748 97.8519C391.114 99.119 390.322 100.386 389.689 101.495C388.263 103.87 386.838 106.246 385.254 108.622C382.244 113.373 378.918 117.967 375.116 122.401C371.314 126.836 367.038 131.112 361.969 134.914C359.434 136.814 356.583 138.556 353.415 140.14L351.039 141.249L348.505 142.199C347.713 142.516 346.762 142.674 345.812 142.991L345.178 143.149C345.02 143.149 344.545 143.308 344.228 143.308C343.594 143.466 342.802 143.625 342.169 143.625C339.476 143.941 337.1 143.625 334.882 143.308C332.823 142.833 330.922 142.358 329.18 141.566C325.695 140.14 323.002 138.556 320.31 136.973C315.082 133.646 310.806 129.845 306.846 126.044C302.727 122.243 299.084 118.283 295.441 114.324C293.698 112.265 291.798 110.364 290.055 108.305C288.313 106.246 286.57 104.187 284.828 101.97L302.41 88.3489C303.836 90.0911 305.42 91.9917 307.004 93.8923C308.588 95.7929 310.172 97.5351 311.914 99.4357C315.241 103.079 318.567 106.405 322.21 109.572C325.695 112.74 329.338 115.591 332.823 117.808C334.566 118.917 336.308 119.709 337.575 120.184C339.001 120.659 339.951 120.659 339.634 120.659C339.634 120.659 339.634 120.659 339.476 120.659C339.476 120.659 339.318 120.659 339.476 120.659L339.793 120.501C340.11 120.342 340.426 120.342 340.902 120.184L342.01 119.709L343.119 119.075C344.545 118.283 346.129 117.175 347.554 116.066C350.564 113.69 353.574 110.523 356.266 107.038C358.959 103.554 361.494 99.5941 363.87 95.6345C364.978 93.5756 366.087 91.5166 367.196 89.4576C367.671 88.3489 368.146 87.3986 368.622 86.2899L369.255 84.7061C369.414 84.231 369.73 83.5974 369.889 83.2807L393.807 93.8923Z" fill="white"/>
<path d="M390.322 346.988H441.485L422.002 250.216H396.975L390.322 346.988Z" fill="#AFC95F"/>
<path opacity="0.6" d="M390.322 346.988H441.485L422.002 250.216H396.975L390.322 346.988Z" fill="white"/>
<path d="M401.252 506.48H388.263L387.63 476.387H400.777L401.252 506.48Z" fill="#BA928D"/>
<path d="M473.483 506.48H460.494L454.633 476.387H467.622L473.483 506.48Z" fill="#BA928D"/>
<path d="M459.543 505.055H474.116C474.591 505.055 475.066 505.372 475.225 506.005L477.442 517.567C477.601 518.834 476.65 519.943 475.542 519.943C470.473 519.784 467.938 519.626 461.444 519.626C457.484 519.626 449.247 520.101 443.862 520.101C438.476 520.101 437.842 514.716 440.06 514.241C450.198 512.024 453.999 509.014 457.326 506.164C457.959 505.372 458.751 505.055 459.543 505.055Z" fill="#263238"/>
<path d="M388.421 505.055H402.677C403.153 505.055 403.628 505.372 403.786 506.005L406.004 517.567C406.162 518.834 405.37 519.943 404.103 519.943C399.034 519.784 391.589 519.626 385.095 519.626C377.492 519.626 377.017 520.101 368.146 520.101C362.761 520.101 361.493 514.716 363.711 514.241C374.007 512.024 376.383 511.707 385.253 506.322C386.204 505.53 387.313 505.055 388.421 505.055Z" fill="#263238"/>
<path d="M292.114 81.38L283.719 81.2216L282.135 92.1501C282.135 92.1501 290.372 93.8923 298.134 90.5662L297.975 87.0818C297.817 83.9142 295.282 81.38 292.114 81.38Z" fill="#D8A39D"/>
<path d="M270.572 81.8552L272.156 88.6657L282.135 92.1501L283.719 81.2216L270.572 81.8552Z" fill="#D8A39D"/>
<path opacity="0.2" d="M387.63 476.387L387.946 491.909H401.094L400.777 476.387H387.63Z" fill="black"/>
<path opacity="0.2" d="M467.621 476.387H454.633L457.642 491.909H470.631L467.621 476.387Z" fill="black"/>
<path d="M372.265 85.8147C368.622 99.5941 362.127 134.438 369.255 189.872H438.951C439.585 180.211 435.15 136.181 443.07 90.5662C444.495 82.6471 438.951 75.2031 431.031 74.4112C428.338 74.0944 425.487 73.936 422.636 73.7776C413.766 73.3025 401.252 73.936 393.49 74.7279C388.897 75.2031 384.62 76.1534 381.294 76.9453C376.858 78.054 373.374 81.5384 372.265 85.8147Z" fill="white"/>
<path d="M419.468 46.0606C417.409 55.5636 416.142 67.4423 422.636 73.7776C422.636 73.7776 418.518 83.439 400.935 83.439C384.778 83.439 393.015 73.7776 393.015 73.7776C403.628 71.2435 403.47 58.0977 401.727 50.6537L419.468 46.0606Z" fill="#D8A39D"/>
<path d="M399.985 82.0135L396.183 86.2899C395.866 86.6067 395.866 87.0818 395.866 87.3986L397.134 91.1998C397.292 91.6749 397.609 91.9917 398.084 91.9917L402.202 92.1501C402.519 92.1501 402.994 91.9917 403.153 91.6749L405.687 88.0321C406.004 87.557 406.004 87.0818 405.687 86.6066L401.727 82.0135C401.252 81.5384 400.46 81.5384 399.985 82.0135Z" fill="#AFC95F"/>
<path d="M399.034 91.8333C399.034 91.8333 392.698 138.398 392.54 146.634C392.381 157.721 396.183 169.283 396.183 169.283C396.183 169.283 400.46 161.047 401.252 146.317C402.044 131.746 401.093 100.228 401.41 91.8333H399.034V91.8333Z" fill="#AFC95F"/>
<path opacity="0.2" d="M401.727 50.6537C402.678 54.93 403.153 61.2654 401.252 66.3336C402.519 66.8088 407.746 64.9082 409.964 63.4827C414.716 60.4734 416.617 57.4642 418.518 50.9704C418.835 49.2282 419.151 47.6444 419.468 46.0606L401.727 50.6537Z" fill="black"/>
<path d="M385.254 41.3091C386.521 44.4767 389.055 46.8525 391.748 47.9612C395.708 49.545 398.242 46.0606 397.609 42.101C396.975 38.4582 394.282 33.2315 390.164 33.3899C385.887 33.3899 383.828 37.6663 385.254 41.3091Z" fill="#D8A39D"/>
<path opacity="0.2" d="M385.254 41.3091C386.521 44.4767 389.055 46.8525 391.748 47.9612C395.708 49.545 398.242 46.0606 397.609 42.101C396.975 38.4582 394.282 33.2315 390.164 33.3899C385.887 33.3899 383.828 37.6663 385.254 41.3091Z" fill="black"/>
<path d="M401.252 27.0546C400.46 32.598 396.975 36.7159 393.49 36.2408C390.006 35.7656 387.63 30.8558 388.422 25.3123C389.214 19.7689 392.698 15.651 396.183 16.1261C399.826 16.6013 402.044 21.5112 401.252 27.0546Z" fill="#263238"/>
<path d="M425.646 33.7067C422.478 46.3774 421.21 53.9798 413.607 59.3648C402.202 67.6007 387.63 59.048 386.996 45.9022C386.521 34.0235 391.748 15.3343 405.054 12.325C418.201 9.15736 428.814 21.0361 425.646 33.7067Z" fill="#D8A39D"/>
<path d="M404.578 7.73187C396.975 9.3157 388.58 15.4926 395.866 20.0857C403.153 24.5205 419.468 25.3124 419.468 25.3124C419.468 25.3124 414.082 37.983 421.527 44.4767C424.062 43.2097 418.676 54.2965 418.676 54.2965C418.676 54.2965 422.478 53.3462 425.012 48.9115C429.447 47.8028 442.436 26.7378 433.724 20.7193C431.982 8.52378 414.716 5.5145 404.578 7.73187Z" fill="#263238"/>
<path d="M422.953 41.3092H422.794L411.39 36.0825C411.231 35.9241 411.073 35.7657 411.231 35.6074C411.39 35.449 411.548 35.2906 411.706 35.449L423.111 40.6756C423.27 40.834 423.428 40.9924 423.27 41.1508C423.27 41.1508 423.111 41.3092 422.953 41.3092Z" fill="white"/>
<path d="M428.655 48.7531C426.279 51.4456 422.953 52.7127 420.102 52.8711C415.825 53.0295 414.716 49.0699 416.775 45.4271C418.676 42.2594 423.111 38.1415 426.913 39.7253C430.873 40.9924 431.348 45.7438 428.655 48.7531Z" fill="#D8A39D"/>
<path d="M369.255 189.872C369.255 189.872 365.137 287.278 365.454 327.032C365.929 368.37 383.036 488.9 383.036 488.9H405.054C405.054 488.9 402.994 370.746 405.054 330.2C407.271 286.011 414.874 189.872 414.874 189.872H369.255V189.872Z" fill="#54AEE3"/>
<path d="M406.321 479.238C406.479 479.238 406.796 489.375 406.796 489.375H381.294L379.868 478.288L406.321 479.238Z" fill="#263238"/>
<path opacity="0.2" d="M399.193 215.689C398.401 263.996 400.618 293.455 406.004 317.054C407.271 293.93 409.489 263.521 411.389 238.179L399.193 215.689Z" fill="black"/>
<path d="M393.966 189.872C393.966 189.872 406.321 289.495 413.449 326.715C421.369 367.578 451.465 488.9 451.465 488.9H475.383C475.383 488.9 456.534 370.904 452.415 330.517C447.98 286.645 438.793 189.872 438.793 189.872H393.966Z" fill="#54AEE3"/>
<path d="M474.908 479.713C475.066 479.713 476.65 489.375 476.65 489.375H450.356L447.505 478.763L474.908 479.713Z" fill="#263238"/>
<path d="M405.846 34.0235C405.687 35.1321 404.895 35.7657 404.262 35.7657C403.628 35.6073 403.153 34.657 403.469 33.7067C403.628 32.598 404.42 31.9645 405.054 31.9645C405.687 31.9645 406.004 32.9148 405.846 34.0235Z" fill="#263238"/>
<path d="M393.015 31.0142C392.857 32.1228 392.065 32.7564 391.431 32.7564C390.797 32.598 390.322 31.6477 390.639 30.6974C390.797 29.5887 391.589 28.9552 392.223 28.9552C392.857 28.9552 393.173 29.9055 393.015 31.0142Z" fill="#263238"/>
<path d="M398.401 46.3773C398.242 46.3773 398.084 46.219 398.084 46.0606C398.084 45.9022 398.242 45.7438 398.401 45.7438C402.836 46.5357 405.687 43.6848 405.687 43.6848C405.846 43.5264 406.004 43.5264 406.162 43.6848C406.321 43.8432 406.321 44.0016 406.162 44.16C406.162 44.16 403.311 47.1693 398.401 46.3773Z" fill="#263238"/>
<path d="M412.023 30.5391C411.865 30.5391 411.706 30.3807 411.548 30.2223C410.598 27.6882 408.38 27.213 408.38 27.213C408.063 27.213 407.905 26.8962 407.905 26.4211C407.905 26.1043 408.38 25.7876 408.697 25.946C408.855 25.946 411.548 26.5795 412.815 29.7471C412.974 30.0639 412.815 30.3807 412.498 30.5391C412.34 30.5391 412.182 30.5391 412.023 30.5391Z" fill="#263238"/>
<path d="M389.847 25.946C389.689 25.946 389.689 25.946 389.53 25.7876C389.214 25.6292 389.214 25.1541 389.53 24.8373C391.748 22.1448 394.599 22.4616 394.599 22.4616C394.916 22.4616 395.233 22.7783 395.074 23.0951C395.074 23.4118 394.758 23.7286 394.441 23.5702C394.282 23.5702 392.223 23.4118 390.322 25.4708C390.164 25.946 390.006 26.1043 389.847 25.946Z" fill="#263238"/>
<path d="M405.529 41.3091C405.212 41.3091 404.895 41.3091 404.578 41.1507C403.153 40.8339 401.886 40.042 400.935 38.775C399.826 37.1911 399.51 35.1322 399.826 33.2316C400.46 29.4304 403.786 26.8962 407.113 27.3714C408.538 27.6882 409.806 28.4801 410.756 29.7471C411.865 31.331 412.182 33.3899 411.865 35.2905C411.39 38.9333 408.538 41.3091 405.529 41.3091ZM406.162 28.3217C403.628 28.3217 401.094 30.5391 400.618 33.5483C400.302 35.2905 400.618 37.1911 401.569 38.4582C402.361 39.5669 403.47 40.3588 404.737 40.5172C407.588 40.9923 410.439 38.775 411.073 35.2905C411.39 33.5483 411.073 31.6477 410.122 30.3807C409.33 29.272 408.222 28.4801 406.954 28.3217C406.796 28.3217 406.479 28.3217 406.162 28.3217Z" fill="white"/>
<path d="M400.302 33.8651C400.143 33.8651 399.985 33.8651 399.985 33.7067C398.718 31.8061 397.134 32.4397 397.134 32.4397C396.975 32.598 396.659 32.4397 396.659 32.2813C396.5 32.1229 396.658 31.8061 396.817 31.8061C396.817 31.8061 399.034 30.8558 400.777 33.2316C400.935 33.39 400.777 33.7067 400.618 33.8651C400.46 33.8651 400.302 33.8651 400.302 33.8651Z" fill="white"/>
<path d="M390.956 37.983C390.639 37.983 390.322 37.983 390.006 37.8246C388.58 37.5079 387.313 36.716 386.362 35.4489C385.254 33.8651 384.937 31.8061 385.254 29.9055C385.887 26.1043 389.214 23.5702 392.54 24.0453C393.966 24.3621 395.233 25.154 396.183 26.4211C397.292 28.0049 397.609 30.0639 397.292 31.9645C396.659 35.6073 393.966 37.983 390.956 37.983ZM391.59 24.8372C389.055 24.8372 386.521 27.0546 386.046 30.0639C385.729 31.8061 386.046 33.7067 386.996 34.9738C387.788 36.0824 388.897 36.8743 390.164 37.0327C393.015 37.5079 395.867 35.2905 396.5 31.8061C396.817 30.0639 396.5 28.1633 395.55 26.8962C394.758 25.7875 393.649 24.9956 392.382 24.8372C392.065 24.9956 391.748 24.8372 391.59 24.8372Z" fill="white"/>
<path d="M455.108 507.272C454.158 507.272 453.207 507.114 452.574 506.639C452.098 506.322 451.94 505.688 451.94 505.055C451.94 504.58 452.257 504.263 452.415 504.104C453.841 503.313 457.959 506.005 458.434 506.322C458.593 506.322 458.593 506.48 458.593 506.639C458.593 506.797 458.434 506.797 458.276 506.955C457.642 507.114 456.375 507.272 455.108 507.272ZM453.366 504.58C453.207 504.58 453.049 504.58 452.89 504.58C452.732 504.58 452.732 504.738 452.732 504.896C452.732 505.372 452.89 505.688 453.049 506.005C453.682 506.639 455.425 506.639 457.642 506.163C456.217 505.53 454.316 504.58 453.366 504.58Z" fill="#AFC95F"/>
<path d="M458.593 506.797C458.434 506.797 458.434 506.797 458.593 506.797C457.167 506.005 454.633 503.154 454.95 501.729C454.95 501.412 455.267 500.937 455.9 500.937C456.375 500.937 456.85 500.937 457.167 501.254C458.593 502.521 458.91 506.322 458.91 506.48C458.91 506.639 458.91 506.639 458.751 506.797C458.593 506.797 458.593 506.797 458.593 506.797ZM456.059 501.57C456.059 501.57 455.9 501.57 456.059 501.57C455.583 501.57 455.425 501.887 455.425 501.887C455.267 502.679 456.85 504.896 458.118 505.847C457.959 504.738 457.642 502.521 456.692 501.729C456.534 501.729 456.217 501.57 456.059 501.57Z" fill="#AFC95F"/>
<path d="M382.878 507.272C381.611 507.272 380.343 507.114 379.71 506.48C379.235 506.164 379.076 505.53 379.235 505.055C379.235 504.738 379.393 504.421 379.71 504.263C381.294 503.313 386.521 506.005 386.996 506.322C387.154 506.322 387.154 506.48 387.154 506.639C387.154 506.797 386.996 506.797 386.838 506.955C385.887 507.114 384.303 507.272 382.878 507.272ZM380.66 504.58C380.343 504.58 380.185 504.58 380.027 504.738C379.868 504.738 379.868 504.896 379.868 505.055C379.868 505.53 379.868 505.847 380.185 506.005C380.977 506.639 383.036 506.797 386.046 506.322C384.145 505.53 381.769 504.58 380.66 504.58Z" fill="#AFC95F"/>
<path d="M386.996 506.797C386.838 506.797 386.838 506.797 386.996 506.797C385.254 506.005 382.244 503.313 382.561 501.729C382.561 501.412 382.878 500.937 383.67 500.937C384.303 500.937 384.937 501.095 385.412 501.412C386.996 502.837 387.313 506.322 387.313 506.48C387.313 506.639 387.313 506.639 387.154 506.797C387.154 506.797 386.996 506.797 386.996 506.797ZM383.828 501.57H383.67C383.036 501.57 383.036 501.887 383.036 501.887C382.878 502.837 384.937 505.055 386.521 506.005C386.362 505.055 385.887 502.837 384.937 502.045C384.62 501.729 384.303 501.57 383.828 501.57Z" fill="#AFC95F"/>
<path d="M423.27 72.8273L438.318 74.5695C443.545 75.203 447.346 79.6378 447.188 84.8644C446.396 108.305 443.386 140.615 445.762 189.872C447.03 214.739 464.454 349.681 464.454 349.681L430.239 355.7C430.239 355.7 405.846 282.843 396.183 196.525C391.906 159.463 395.866 125.886 395.866 125.886L423.27 72.8273Z" fill="#AFC95F"/>
<path opacity="0.8" d="M423.27 72.8273L438.318 74.5695C443.545 75.203 447.346 79.6378 447.188 84.8644C446.396 108.305 443.386 140.615 445.762 189.872C447.03 214.739 464.454 349.681 464.454 349.681L430.239 355.7C430.239 355.7 405.846 282.843 396.183 196.525C391.906 159.463 395.866 125.886 395.866 125.886L423.27 72.8273Z" fill="white"/>
<path opacity="0.2" d="M435.783 102.762C435.783 106.246 438.476 124.143 445.129 136.497C445.287 128.103 445.604 120.342 445.921 113.373L435.783 102.762Z" fill="#AFC95F"/>
<path opacity="0.2" d="M370.998 99.5941C369.097 103.237 363.553 118.917 360.702 136.022C361.969 135.072 363.236 134.122 364.345 133.171C368.939 129.37 372.899 125.252 376.383 121.134C376.542 120.817 376.859 120.501 377.017 120.342L370.998 99.5941Z" fill="#AFC95F"/>
<path d="M391.589 74.4112L382.719 75.5198C373.849 76.6285 367.196 83.9141 366.879 92.7836C365.929 119.075 363.869 171.658 362.761 190.031C361.177 214.897 362.285 349.839 362.285 349.839L383.669 353.641C383.669 353.641 389.055 279.359 396.183 196.683C399.193 161.363 397.45 123.035 397.45 123.035L391.589 74.4112Z" fill="#AFC95F"/>
<path opacity="0.8" d="M391.589 74.4112L382.719 75.5198C373.849 76.6285 367.196 83.9141 366.879 92.7836C365.929 119.075 363.869 171.658 362.761 190.031C361.177 214.897 362.285 349.839 362.285 349.839L383.669 353.641C383.669 353.641 389.055 279.359 396.183 196.683C399.193 161.363 397.45 123.035 397.45 123.035L391.589 74.4112Z" fill="white"/>
<path d="M400.777 81.6968C403.786 86.4483 405.529 91.8333 405.529 91.8333C405.529 91.8333 426.279 84.7061 425.646 73.3025C425.646 73.3025 422.478 71.4019 420.577 69.9764C420.577 69.818 419.626 77.1037 400.777 81.6968Z" fill="#F5F5F5"/>
<path d="M400.777 81.6968C396.658 86.4483 394.916 90.7246 394.916 90.7246C394.916 90.7246 386.362 85.0228 389.689 73.6192C389.689 73.6192 392.54 72.3522 395.391 71.877C395.391 71.877 393.965 79.1627 400.777 81.6968Z" fill="#F5F5F5"/>
<path opacity="0.2" d="M422.478 196.841L446.238 217.273L429.923 209.354L422.478 196.841Z" fill="#AFC95F"/>
<path d="M446.396 80.5881C447.346 82.0136 448.138 83.1222 449.089 84.3893L451.465 88.0321C453.049 90.4079 454.633 92.942 456.058 95.4761C459.068 100.544 461.919 105.613 464.454 110.998C466.988 116.383 469.364 121.926 471.265 127.945C472.215 130.954 473.007 134.122 473.641 137.448C474.274 140.774 474.591 144.416 474.433 148.059C474.116 155.187 472.69 161.68 470.631 167.54C468.572 173.559 466.038 179.102 463.186 184.329C460.335 189.556 457.167 194.624 453.999 199.375C452.415 201.751 450.673 204.127 448.93 206.503C447.98 207.611 447.188 208.878 446.238 209.987C445.287 211.096 444.495 212.204 443.228 213.63L426.438 199.059C427.071 198.267 428.022 197.158 428.655 196.208L431.031 193.198C432.615 191.139 434.041 189.081 435.466 186.863C438.318 182.587 441.01 178.152 443.228 173.717C445.604 169.283 447.505 164.69 448.93 160.255C450.356 155.82 451.148 151.385 451.148 147.584C451.148 143.941 450.198 139.823 448.614 135.389C447.03 130.954 444.97 126.519 442.594 122.084C440.218 117.65 437.526 113.215 434.674 108.939C433.249 106.721 431.665 104.662 430.239 102.603L427.863 99.4357C427.071 98.4854 426.279 97.3767 425.646 96.5848L446.396 80.5881Z" fill="#AFC95F"/>
<path opacity="0.8" d="M446.396 80.5881C447.346 82.0136 448.138 83.1222 449.089 84.3893L451.465 88.0321C453.049 90.4079 454.633 92.942 456.058 95.4761C459.068 100.544 461.919 105.613 464.454 110.998C466.988 116.383 469.364 121.926 471.265 127.945C472.215 130.954 473.007 134.122 473.641 137.448C474.274 140.774 474.591 144.416 474.433 148.059C474.116 155.187 472.69 161.68 470.631 167.54C468.572 173.559 466.038 179.102 463.186 184.329C460.335 189.556 457.167 194.624 453.999 199.375C452.415 201.751 450.673 204.127 448.93 206.503C447.98 207.611 447.188 208.878 446.238 209.987C445.287 211.096 444.495 212.204 443.228 213.63L426.438 199.059C427.071 198.267 428.022 197.158 428.655 196.208L431.031 193.198C432.615 191.139 434.041 189.081 435.466 186.863C438.318 182.587 441.01 178.152 443.228 173.717C445.604 169.283 447.505 164.69 448.93 160.255C450.356 155.82 451.148 151.385 451.148 147.584C451.148 143.941 450.198 139.823 448.614 135.389C447.03 130.954 444.97 126.519 442.594 122.084C440.218 117.65 437.526 113.215 434.674 108.939C433.249 106.721 431.665 104.662 430.239 102.603L427.863 99.4357C427.071 98.4854 426.279 97.3767 425.646 96.5848L446.396 80.5881Z" fill="white"/>
<path d="M425.012 108.147C424.061 110.522 421.21 112.106 418.676 111.473C416.141 110.839 414.874 108.305 415.983 105.929C416.933 103.554 419.785 101.97 422.319 102.603C424.695 103.237 425.962 105.613 425.012 108.147Z" fill="#263238"/>
<path opacity="0.2" d="M425.012 108.147C424.061 110.522 421.21 112.106 418.676 111.473C416.141 110.839 414.874 108.305 415.983 105.929C416.933 103.554 419.785 101.97 422.319 102.603C424.695 103.237 425.962 105.613 425.012 108.147Z" fill="white"/>
<path d="M419.785 105.613C419.626 105.613 419.468 105.613 419.468 105.454C419.151 105.296 419.151 104.821 419.309 104.662C431.031 88.3489 427.863 73.7776 427.705 73.6192C427.705 73.3025 427.863 72.9857 428.18 72.8273C428.497 72.6689 428.814 72.9857 428.972 73.3025C428.972 73.4609 432.457 88.5072 420.26 105.454C420.102 105.613 419.943 105.613 419.785 105.613Z" fill="#263238"/>
<path d="M378.759 97.3766C378.442 97.3766 378.126 97.0599 378.126 96.7431C376.858 80.588 385.412 74.7279 385.729 74.4111C386.045 74.2527 386.362 74.2527 386.521 74.5695C386.679 74.8862 386.679 75.203 386.362 75.3614C386.204 75.3614 378.126 81.2216 379.234 96.5847C379.393 97.0599 379.076 97.3766 378.759 97.3766Z" fill="#263238"/>
<path d="M423.27 107.672C422.319 110.047 419.468 111.631 416.934 110.998C414.399 110.364 413.132 107.83 414.241 105.454C415.191 103.079 418.042 101.495 420.577 102.128C422.953 102.762 424.22 105.296 423.27 107.672Z" fill="#263238"/>
<path opacity="0.4" d="M423.27 107.672C422.319 110.047 419.468 111.631 416.934 110.998C414.399 110.364 413.132 107.83 414.241 105.454C415.191 103.079 418.042 101.495 420.577 102.128C422.953 102.762 424.22 105.296 423.27 107.672Z" fill="white"/>
<path opacity="0.4" d="M420.577 106.88C420.102 108.147 418.518 108.939 417.25 108.622C415.983 108.305 415.35 107.038 415.825 105.771C416.3 104.504 417.884 103.712 419.151 104.029C420.419 104.187 421.211 105.613 420.577 106.88Z" fill="white"/>
<path d="M383.511 134.755C383.194 134.755 382.878 134.438 382.878 134.122C382.878 133.805 383.194 133.488 383.511 133.488C385.887 133.488 387.946 131.588 388.105 129.212L389.213 108.622C389.372 105.613 388.422 102.762 386.362 100.703C384.303 98.6438 381.61 97.3768 378.601 97.3768C372.423 97.3768 367.038 102.445 366.721 108.622L365.612 129.212C365.612 130.32 365.929 131.429 366.721 132.221C367.513 133.013 368.463 133.488 369.73 133.488C370.047 133.488 370.364 133.805 370.364 134.122C370.364 134.438 370.047 134.755 369.73 134.755C368.305 134.755 366.879 134.122 365.929 133.171C364.978 132.063 364.503 130.796 364.503 129.212L365.612 108.622C365.929 101.811 371.948 96.1097 378.759 96.1097C382.086 96.1097 385.095 97.3768 387.313 99.7525C389.53 102.128 390.639 105.296 390.481 108.622L389.372 129.212C389.214 132.379 386.521 134.755 383.511 134.755Z" fill="#263238"/>
<path d="M370.68 134.122C370.68 135.072 370.047 135.864 369.572 135.864C368.938 135.864 368.621 135.072 368.621 134.122C368.621 133.171 369.255 132.379 369.73 132.379C370.205 132.379 370.68 133.171 370.68 134.122Z" fill="#263238"/>
<path d="M384.62 134.122C384.62 135.072 383.986 135.864 383.511 135.864C382.878 135.864 382.561 135.072 382.561 134.122C382.561 133.171 383.194 132.379 383.67 132.379C384.145 132.379 384.62 133.171 384.62 134.122Z" fill="#263238"/>
<path d="M256.95 29.1573L255.841 28.3654C258.375 24.881 261.543 22.1885 265.345 20.2879C271.681 16.9619 278.967 16.4867 285.62 18.7041L285.145 19.9711C278.65 17.9122 271.839 18.3873 265.82 21.555C262.335 23.2972 259.326 25.8313 256.95 29.1573Z" fill="#6695B1"/>
<path d="M252.198 43.2535H250.772C250.772 40.7193 251.247 38.1852 252.039 35.8095L253.306 36.2846C252.673 38.502 252.356 40.8777 252.198 43.2535Z" fill="#6695B1"/>
<path d="M326.646 44.3621C321.418 32.9586 307.796 28.3654 296.866 33.9089C291.322 23.1388 278.017 18.8625 267.246 24.7226C256.633 30.4244 252.99 43.887 258.534 54.4987L272.79 82.3741C275.641 88.0759 282.61 90.2933 288.313 87.4424L316.191 73.1879C326.646 67.8029 331.556 55.1322 326.646 44.3621Z" fill="#FFC3BD"/>
</svg>
