<svg width="19" height="19" viewBox="0 0 19 19" fill="none" xmlns="http://www.w3.org/2000/svg">
<path d="M0.870622 7.16119C6.87356 7.16119 12.85 7.16119 18.8574 7.16119C18.8574 7.58386 18.8574 7.99274 18.8574 8.40162C18.8574 11.3097 18.8574 14.2225 18.8574 17.1306C18.8574 18.2102 18.1958 18.8993 17.1637 18.8993C12.3031 18.8993 7.44695 18.8993 2.58638 18.8993C1.51899 18.9039 0.870622 18.224 0.866211 17.1168C0.866211 13.8871 0.866211 10.6528 0.866211 7.42306C0.870622 7.34037 0.870622 7.25767 0.870622 7.16119ZM5.29013 10.0785C5.12252 10.0785 4.95492 10.0785 4.7829 10.0785C4.60647 10.0785 4.43004 10.0739 4.25362 10.0785C3.90517 10.0831 3.68464 10.299 3.68023 10.6344C3.68023 10.9698 3.90076 11.1903 4.24921 11.1949C4.93286 11.1995 5.61211 11.1995 6.29576 11.1949C6.64421 11.1949 6.86474 10.9744 6.86915 10.639C6.87356 10.3082 6.64862 10.0831 6.30458 10.0785C5.96496 10.0785 5.62534 10.0785 5.29013 10.0785ZM9.83754 11.1949C10.1904 11.1949 10.5433 11.1995 10.8917 11.1903C11.2401 11.1857 11.4563 10.9606 11.4474 10.6252C11.443 10.299 11.2313 10.0831 10.8873 10.0831C10.1992 10.0785 9.50674 10.0785 8.81867 10.0831C8.48346 10.0831 8.26734 10.3036 8.26293 10.6298C8.25852 10.9606 8.47905 11.1903 8.82308 11.1949C9.16271 11.1995 9.50233 11.1949 9.83754 11.1949ZM14.4467 11.1949C14.7863 11.1949 15.1215 11.1949 15.4612 11.1949C15.814 11.1949 16.039 10.9836 16.0434 10.6528C16.0478 10.3082 15.8273 10.0877 15.4656 10.0831C14.7907 10.0785 14.1159 10.0785 13.4411 10.0831C13.0794 10.0831 12.8544 10.3082 12.8589 10.6482C12.8633 10.9836 13.0838 11.1903 13.4367 11.1949C13.7719 11.1949 14.1115 11.1949 14.4467 11.1949ZM5.25043 14.8702C5.60329 14.8702 5.95614 14.8748 6.30458 14.8702C6.64862 14.8656 6.86915 14.6359 6.86474 14.3006C6.86033 13.9744 6.64421 13.7584 6.30458 13.7538C5.61652 13.7493 4.92404 13.7493 4.23597 13.7538C3.89194 13.7584 3.67141 13.9881 3.67582 14.3189C3.68023 14.6451 3.89635 14.861 4.23597 14.8656C4.5756 14.8748 4.91522 14.8702 5.25043 14.8702ZM9.84195 14.8702C10.1948 14.8702 10.5477 14.8748 10.8961 14.8656C11.2445 14.861 11.4563 14.6359 11.4519 14.296C11.4474 13.9698 11.2357 13.7538 10.8917 13.7538C10.2036 13.7493 9.51115 13.7493 8.82308 13.7538C8.48787 13.7538 8.27175 13.9744 8.26734 14.3006C8.26293 14.6313 8.48346 14.861 8.8275 14.8656C9.16712 14.8748 9.50233 14.8702 9.84195 14.8702ZM14.4423 14.8702C14.7819 14.8702 15.1171 14.8702 15.4568 14.8702C15.814 14.8702 16.0346 14.6635 16.0434 14.3327C16.0522 13.9881 15.8317 13.7584 15.47 13.7584C14.7863 13.7538 14.1071 13.7538 13.4234 13.7584C13.075 13.7584 12.8544 13.9836 12.8589 14.3189C12.8633 14.6543 13.0838 14.8702 13.4322 14.8702C13.7675 14.8702 14.1027 14.8702 14.4423 14.8702Z" fill="#9BB353"/>
<path d="M5.44897 3.10909C8.3909 3.10909 11.3328 3.10909 14.2792 3.10909L14.2703 3.0999C14.2703 3.63283 14.2659 4.17034 14.2703 4.70327C14.2748 5.26376 14.6453 5.67264 15.1437 5.68183C15.6553 5.68642 16.039 5.27295 16.0434 4.70327C16.0479 4.17034 16.0434 3.63283 16.0434 3.0999L16.0346 3.10909C16.5551 3.12287 17.0844 3.08152 17.596 3.15962C18.3282 3.26989 18.8486 3.96361 18.8575 4.73083C18.8619 5.15809 18.8575 5.58535 18.8575 6.02639C12.8589 6.02639 6.88244 6.02639 0.875089 6.02639C0.901553 5.41537 0.773644 4.79515 0.967714 4.19331C1.17061 3.55932 1.76605 3.12287 2.41001 3.10909C2.83784 3.0999 3.26127 3.10449 3.68911 3.10449L3.68029 3.09531C3.68029 3.62823 3.67588 4.16575 3.68029 4.69867C3.6847 5.25916 4.05519 5.66805 4.5536 5.67264C5.06524 5.67723 5.44897 5.26376 5.45338 4.69867C5.45779 4.16575 5.45338 3.62823 5.45338 3.09531C5.45338 3.0999 5.44897 3.10909 5.44897 3.10909Z" fill="#9BB353"/>
<path d="M3.68898 3.10908C3.68898 2.69101 3.68898 2.26834 3.69339 1.85027C3.6978 1.30356 4.0683 0.90387 4.56671 0.90387C5.0607 0.90387 5.43561 1.30356 5.44443 1.84568C5.44884 2.26375 5.44443 2.68641 5.44884 3.10448L5.45767 3.09529C4.86663 3.09529 4.2756 3.09529 3.68457 3.09529L3.68898 3.10908Z" fill="#9BB353"/>
<path d="M14.2747 3.10908C14.2747 2.69101 14.2747 2.26834 14.2791 1.85027C14.2835 1.30356 14.654 0.90387 15.1524 0.90387C15.6508 0.90387 16.0257 1.30356 16.0301 1.84568C16.0345 2.26375 16.0301 2.68641 16.0345 3.10448L16.0434 3.09529C15.4523 3.09529 14.8613 3.09529 14.2703 3.09529L14.2747 3.10908Z" fill="#9BB353"/>
</svg>
