<svg width="292" height="296" viewBox="0 0 292 296" fill="none" xmlns="http://www.w3.org/2000/svg">
<g clip-path="url(#clip0_786:3176)">
<path opacity="0.1" d="M262.176 67.856H261.957C260.862 60.0265 254.072 53.9368 245.968 53.9368C245.53 53.9368 245.311 53.9368 244.873 54.1543C244.873 54.1543 244.873 54.1543 244.873 53.9368C244.873 45.6723 238.083 38.9302 229.759 38.9302C226.474 38.9302 223.627 40.0177 220.998 41.5401C216.618 36.3204 210.047 32.8406 202.6 32.8406C190.553 32.8406 180.697 41.5401 178.944 53.0669C177.63 52.6319 176.316 52.4144 174.783 52.4144C166.241 52.4144 159.451 59.374 159.451 67.856V68.726C159.451 78.5129 167.555 86.5599 177.411 86.5599H244.654C244.873 86.5599 245.092 86.5599 245.53 86.5599C245.749 86.5599 245.968 86.5599 246.406 86.5599C255.386 86.5599 262.833 79.3828 262.833 70.2484C262.833 70.0309 262.833 69.8134 262.833 69.3784C262.833 69.1609 262.833 68.9435 262.833 68.5085V67.856H262.176Z" fill="white"/>
<path d="M216.179 79.8179H121.996V293.173H216.179V79.8179Z" fill="#E6E6E6"/>
<path d="M75.1238 186.604H27.8132V197.478H75.1238V186.604Z" fill="#C8C8C8"/>
<path d="M134.919 84.3851H127.91V102.437H134.919V84.3851Z" fill="#6695B1"/>
<path d="M147.623 84.3851H140.614V102.437H147.623V84.3851Z" fill="#6695B1"/>
<path d="M160.108 84.3851H153.099V102.437H160.108V84.3851Z" fill="#6695B1"/>
<path d="M172.811 84.3851H165.802V102.437H172.811V84.3851Z" fill="#6695B1"/>
<path d="M185.515 84.3851H178.506V102.437H185.515V84.3851Z" fill="#6695B1"/>
<path d="M198 84.3851H190.991V102.437H198V84.3851Z" fill="#6695B1"/>
<path d="M210.704 84.3851H203.695V102.437H210.704V84.3851Z" fill="#6695B1"/>
<path d="M134.919 108.309H127.91V126.36H134.919V108.309Z" fill="#6695B1"/>
<path d="M147.623 108.309H140.614V126.36H147.623V108.309Z" fill="#6695B1"/>
<path d="M160.108 108.309H153.099V126.36H160.108V108.309Z" fill="#6695B1"/>
<path d="M172.811 108.309H165.802V126.36H172.811V108.309Z" fill="#6695B1"/>
<path d="M185.515 108.309H178.506V126.36H185.515V108.309Z" fill="#6695B1"/>
<path d="M198 108.309H190.991V126.36H198V108.309Z" fill="#6695B1"/>
<path d="M210.704 108.309H203.695V126.36H210.704V108.309Z" fill="#6695B1"/>
<path d="M134.919 132.232H127.91V150.284H134.919V132.232Z" fill="#6695B1"/>
<path d="M147.623 132.232H140.614V150.284H147.623V132.232Z" fill="#6695B1"/>
<path d="M160.108 132.232H153.099V150.284H160.108V132.232Z" fill="#6695B1"/>
<path d="M172.811 132.232H165.802V150.284H172.811V132.232Z" fill="#6695B1"/>
<path d="M185.515 132.232H178.506V150.284H185.515V132.232Z" fill="#6695B1"/>
<path d="M198 132.232H190.991V150.284H198V132.232Z" fill="#6695B1"/>
<path d="M210.704 132.232H203.695V150.284H210.704V132.232Z" fill="#6695B1"/>
<path d="M134.919 156.156H127.91V174.207H134.919V156.156Z" fill="#6695B1"/>
<path d="M147.623 156.156H140.614V174.207H147.623V156.156Z" fill="#6695B1"/>
<path d="M160.108 156.156H153.099V174.207H160.108V156.156Z" fill="#6695B1"/>
<path d="M172.811 156.156H165.802V174.207H172.811V156.156Z" fill="#6695B1"/>
<path d="M185.515 156.156H178.506V174.207H185.515V156.156Z" fill="#6695B1"/>
<path d="M198 156.156H190.991V174.207H198V156.156Z" fill="#6695B1"/>
<path d="M210.704 156.156H203.695V174.207H210.704V156.156Z" fill="#6695B1"/>
<path d="M134.919 180.079H127.91V198.131H134.919V180.079Z" fill="#6695B1"/>
<path d="M147.623 180.079H140.614V198.131H147.623V180.079Z" fill="#6695B1"/>
<path d="M160.108 180.079H153.099V198.131H160.108V180.079Z" fill="#6695B1"/>
<path d="M172.811 180.079H165.802V198.131H172.811V180.079Z" fill="#6695B1"/>
<path d="M185.515 180.079H178.506V198.131H185.515V180.079Z" fill="#6695B1"/>
<path d="M198 180.079H190.991V198.131H198V180.079Z" fill="#6695B1"/>
<path d="M210.704 180.079H203.695V198.131H210.704V180.079Z" fill="#6695B1"/>
<path d="M172.811 204.003H165.802V222.055H172.811V204.003Z" fill="#6695B1"/>
<path d="M185.515 204.003H178.506V222.055H185.515V204.003Z" fill="#6695B1"/>
<path d="M198 204.003H190.991V222.055H198V204.003Z" fill="#6695B1"/>
<path d="M210.704 204.003H203.695V222.055H210.704V204.003Z" fill="#6695B1"/>
<path d="M107.978 186.604H83.885V197.478H107.978V186.604Z" fill="#C8C8C8"/>
<path d="M169.307 197.261H4.15796V293.173H169.307V197.261Z" fill="#6695B1"/>
<path d="M151.565 222.272H4.15796V293.173H151.565V222.272Z" fill="#AFC95F"/>
<path d="M216.179 294.26V197.261H230.855L240.93 209.44V294.26H216.179Z" fill="#6695B1"/>
<path d="M211.799 69.8135H127.034V79.8179H211.799V69.8135Z" fill="#6695B1"/>
<path d="M201.504 59.5916H137.109V69.596H201.504V59.5916Z" fill="#AFC95F"/>
<path d="M210.704 253.59H169.088V261.855H210.704V253.59Z" fill="#6695B1"/>
<path d="M210.704 240.976H169.088V249.24H210.704V240.976Z" fill="#6695B1"/>
<path d="M210.704 228.362H169.088V236.626H210.704V228.362Z" fill="#6695B1"/>
<path d="M207.199 267.944H180.258V293.173H207.199V267.944Z" fill="#6695B1"/>
<path d="M229.54 207.048H222.531V225.099H229.54V207.048Z" fill="white"/>
<path d="M229.54 235.756H222.531V253.808H229.54V235.756Z" fill="white"/>
<path d="M229.54 264.682H222.531V282.733H229.54V264.682Z" fill="white"/>
<path d="M73.5906 204.003H79.0664V206.178H78.1903V212.485H79.0664V214.66H73.5906V212.485H74.2477V210.093H72.0574V212.485H72.7145V214.66H67.2388V212.485H68.1149V206.178H67.2388V204.003H72.7145V206.178H72.0574V208.353H74.2477V206.178H73.5906V204.003Z" fill="white"/>
<path d="M90.4559 209.441C90.4559 210.529 90.2369 211.398 90.0179 212.051C89.7988 212.703 89.3608 213.356 88.9227 213.791C88.4846 214.226 87.8276 214.661 87.1705 214.661C86.5134 214.878 85.8563 214.878 84.9802 214.878C84.104 214.878 83.4469 214.878 82.7899 214.661C82.1328 214.443 81.4757 214.226 81.0376 213.791C80.5995 213.356 80.1615 212.703 79.9425 212.051C79.7234 211.398 79.5044 210.529 79.5044 209.441C79.5044 208.354 79.7234 207.484 79.9425 206.831C80.1615 206.179 80.5995 205.526 81.0376 205.091C81.4757 204.656 82.1328 204.221 82.7899 204.221C83.4469 204.004 84.104 204.004 84.9802 204.004C85.8563 204.004 86.5134 204.004 87.1705 204.221C87.8276 204.439 88.4846 204.656 88.9227 205.091C89.3608 205.526 89.7988 206.179 90.0179 206.831C90.2369 207.701 90.4559 208.354 90.4559 209.441ZM85.1992 212.703C85.4182 212.703 85.8563 212.703 85.8563 212.486C86.0753 212.268 86.0753 212.051 86.0753 211.616V207.484C86.0753 207.049 86.0753 206.831 85.8563 206.614C85.6372 206.396 85.4182 206.396 85.1992 206.396C84.9802 206.396 84.5421 206.396 84.5421 206.614C84.3231 206.831 84.3231 207.049 84.3231 207.484V211.616C84.3231 212.051 84.3231 212.268 84.5421 212.486C84.5421 212.486 84.7611 212.703 85.1992 212.703Z" fill="white"/>
<path d="M95.2747 212.485C95.4937 212.485 95.7128 212.485 95.9318 212.268C96.1508 212.268 96.1508 212.05 96.1508 211.833C96.1508 211.615 96.1508 211.615 95.9318 211.398C95.9318 211.398 95.7128 211.18 95.2747 210.963C94.6176 210.745 93.9605 210.528 93.5225 210.31C93.0844 210.093 92.6463 209.875 92.2083 209.44C91.7702 209.223 91.5512 208.788 91.5512 208.353C91.3322 207.918 91.3322 207.483 91.3322 207.048C91.3322 206.613 91.3322 205.961 91.5512 205.743C91.7702 205.308 91.9892 204.873 92.4273 204.656C92.8654 204.438 93.3034 204.221 93.9605 204.003C94.6176 203.786 95.2747 203.786 96.1508 203.786C97.0269 203.786 97.684 203.786 98.3411 204.003C98.9982 204.221 99.6553 204.438 100.093 204.656V207.048H97.246C97.246 206.83 97.246 206.613 97.0269 206.395C96.8079 206.613 96.5889 206.613 96.3699 206.613C96.1508 206.613 95.9318 206.613 95.7128 206.83C95.4937 206.83 95.4937 207.048 95.4937 207.265C95.4937 207.483 95.4937 207.483 95.7128 207.7C95.9318 207.7 96.1508 207.918 96.3699 207.918C96.8079 208.135 97.465 208.353 97.9031 208.57C98.3411 208.788 98.7792 209.005 99.2172 209.223C99.6553 209.44 99.8743 209.875 100.093 210.31C100.312 210.745 100.312 211.18 100.312 211.833C100.312 213.138 99.8743 214.008 99.2172 214.442C98.3411 215.095 97.246 215.312 95.7128 215.312C94.8366 215.312 93.9605 215.312 93.3034 215.095C92.4273 214.877 91.7702 214.877 91.3322 214.66V211.833H94.3986C94.3986 212.05 94.3986 212.268 94.6176 212.485C94.6176 212.268 94.8366 212.485 95.2747 212.485Z" fill="white"/>
<path d="M107.102 214.878H100.969V212.703H101.846V206.396H100.969V204.221H107.321C107.978 204.221 108.417 204.221 108.855 204.438C109.293 204.656 109.731 204.656 109.95 205.091C110.169 205.308 110.607 205.743 110.607 206.178C110.826 206.613 110.826 207.048 110.826 207.7C110.826 208.353 110.826 208.788 110.607 209.223C110.388 209.658 110.169 209.875 109.95 210.31C109.731 210.528 109.293 210.745 108.855 210.963C108.417 211.18 107.978 211.18 107.321 211.18H105.788V213.138H107.102V214.878ZM106.226 208.57C106.445 208.57 106.664 208.57 106.883 208.353C107.102 208.135 107.102 207.918 107.102 207.7V207.266C107.102 207.048 107.102 206.831 106.883 206.613C106.664 206.396 106.445 206.396 106.226 206.396H105.788V208.57H106.226Z" fill="white"/>
<path d="M111.921 204.004H117.616V206.179H116.74V212.486H117.616V214.661H111.921V212.486H112.797V206.179H111.921V204.004Z" fill="white"/>
<path d="M118.054 204.004H128.567V207.484H126.158V206.396H125.282V212.703H126.158V214.878H120.244V212.703H121.12V206.396H120.244V207.484H117.835V204.004H118.054Z" fill="white"/>
<path d="M133.824 212.703H134.7L134.481 211.615H132.51L132.291 212.703H133.167V214.878H128.348V212.703H129.005L131.415 204.221H136.452L138.862 212.703H139.519V214.878H133.824V212.703ZM132.948 210.093H134.262L133.605 207.266H133.386L132.948 210.093Z" fill="white"/>
<path d="M140.176 204.004H146.309V206.179H144.995V212.486H146.309V211.181H149.156V214.661H140.395V212.486H141.271V206.179H140.395V204.004H140.176Z" fill="white"/>
<path d="M42.4883 222.272H39.6409V290.345H42.4883V222.272Z" fill="white"/>
<path d="M79.2854 222.272H76.438V290.345H79.2854V222.272Z" fill="white"/>
<path d="M116.083 222.272H113.235V290.345H116.083V222.272Z" fill="white"/>
<path d="M151.565 220.967H4.15796V223.794H151.565V220.967Z" fill="white"/>
<path d="M151.565 237.496H4.15796V240.323H151.565V237.496Z" fill="white"/>
<path d="M151.565 254.243H4.15796V257.07H151.565V254.243Z" fill="white"/>
<path d="M151.565 270.989H4.15796V273.816H151.565V270.989Z" fill="white"/>
<path d="M151.565 287.518H4.15796V290.345H151.565V287.518Z" fill="white"/>
<path d="M152.88 220.967H150.032V291.868H152.88V220.967Z" fill="white"/>
<path d="M253.634 290.345H-0.222656V296H253.634V290.345Z" fill="#6695B1"/>
<path opacity="0.1" d="M135.357 22.6187C134.481 17.6165 130.101 13.7017 124.844 13.7017C124.625 13.7017 124.406 13.7017 124.187 13.7017C124.187 8.26451 119.806 3.91477 114.33 3.91477C112.14 3.91477 110.388 4.56723 108.636 5.65467C105.569 2.17487 101.408 0 96.5889 0C88.7038 0 82.3519 5.65467 81.2567 13.0492C80.3806 12.8317 79.5045 12.6143 78.6284 12.6143C73.1526 12.6143 68.553 17.1815 68.553 22.6187V23.0536C68.553 29.3608 73.8097 34.5805 80.1616 34.5805H123.749C123.968 34.5805 124.187 34.5805 124.187 34.5805C124.406 34.5805 124.625 34.5805 124.625 34.5805C130.539 34.5805 135.138 29.7957 135.138 24.1411C135.138 23.9236 135.138 23.7061 135.138 23.7061C135.138 23.4886 135.138 23.2711 135.138 23.2711V22.6187H135.357Z" fill="white"/>
</g>
<defs>
<clipPath id="clip0_786:3176">
<rect width="292" height="296" fill="white"/>
</clipPath>
</defs>
</svg>
