<svg width="196" height="311" viewBox="0 0 196 311" fill="none" xmlns="http://www.w3.org/2000/svg">
<g clip-path="url(#clip0_786:3382)">
<path d="M-111.675 273.195H305.395V273.362H-111.675V273.195Z" fill="#EBEBEB"/>
<path d="M29.1282 288.97H36.3853V289.137H29.1282V288.97Z" fill="#EBEBEB"/>
<path d="M117.547 283.879H195.706V284.046H117.547V283.879Z" fill="#EBEBEB"/>
<path d="M107.704 235.968H268.777C271.362 235.968 273.531 233.798 273.531 231.211V4.67977C273.531 2.09227 271.362 -0.0778809 268.777 -0.0778809H107.704C105.118 -0.0778809 102.95 2.09227 102.95 4.67977V231.211C102.95 233.882 105.035 235.968 107.704 235.968ZM268.777 0.0890542C271.279 0.0890542 273.364 2.09227 273.364 4.67977V231.211C273.364 233.715 271.362 235.801 268.777 235.801H107.704C105.202 235.801 103.117 233.798 103.117 231.211V4.67977C103.117 2.17574 105.118 0.0890542 107.704 0.0890542H268.777V0.0890542Z" fill="#EBEBEB"/>
<path d="M-72.72 235.968H88.3523C90.9382 235.968 93.1069 233.798 93.1069 231.211V4.67977C93.1069 2.09227 90.9382 -0.0778809 88.3523 -0.0778809H-72.72C-75.3058 -0.0778809 -77.4746 2.09227 -77.4746 4.67977V231.211C-77.4746 233.882 -75.3893 235.968 -72.72 235.968ZM88.3523 0.0890542C90.8547 0.0890542 92.9401 2.09227 92.9401 4.67977V231.211C92.9401 233.715 90.9382 235.801 88.3523 235.801H-72.72C-75.2224 235.801 -77.3078 233.798 -77.3078 231.211V4.67977C-77.3078 2.17574 -75.3058 0.0890542 -72.72 0.0890542H88.3523V0.0890542Z" fill="#EBEBEB"/>
<path d="M14.591 33.1337H64.3892V107.336H14.591V33.1337Z" fill="#E6E6E6"/>
<path d="M14.613 107.322H13.8623L13.8623 33.1196H14.613L14.613 107.322Z" fill="#E0E0E0"/>
<path d="M17.4838 104.541L17.4838 35.9308L61.6097 35.9308L61.6097 104.541L17.4838 104.541Z" fill="#FAFAFA"/>
<path d="M31.218 64.5703C26.6249 59.9743 26.6249 52.5227 31.218 47.9267C35.811 43.3307 43.2578 43.3307 47.8509 47.9267C52.4439 52.5227 52.444 59.9743 47.8509 64.5703C43.2578 69.1663 35.811 69.1663 31.218 64.5703Z" fill="#F0F0F0"/>
<path d="M25.0178 74.8677H54.1293V77.8725H25.0178V74.8677Z" fill="#EBEBEB"/>
<path d="M25.0178 82.797H54.1293V85.8018H25.0178V82.797Z" fill="#EBEBEB"/>
<path d="M25.0178 90.7264H54.1293V93.7313H25.0178V90.7264Z" fill="#EBEBEB"/>
<path d="M137.233 57.5989H187.031V131.801H137.233V57.5989Z" fill="#E6E6E6"/>
<path d="M137.239 131.792H136.488V57.5891H137.239V131.792Z" fill="#E0E0E0"/>
<path d="M140.073 129.042V60.4315L184.199 60.4315V129.042H140.073Z" fill="#FAFAFA"/>
<path d="M150.674 83.3946C149.182 77.069 153.096 70.7302 159.418 69.2366C165.739 67.7429 172.074 71.66 173.567 77.9856C175.059 84.3112 171.145 90.6499 164.823 92.1436C158.502 93.6372 152.167 89.7202 150.674 83.3946Z" fill="#F0F0F0"/>
<path d="M147.576 99.3318H176.687V102.337H147.576V99.3318Z" fill="#EBEBEB"/>
<path d="M147.576 107.261H176.687V110.266H147.576V107.261Z" fill="#EBEBEB"/>
<path d="M147.576 115.191H176.687V118.196H147.576V115.191Z" fill="#EBEBEB"/>
<path d="M52.9845 162.684H56.321V125.29C56.321 118.363 61.9932 112.687 68.9165 112.687C75.8399 112.687 81.5121 118.363 81.5121 125.29H84.8486C84.8486 116.526 77.675 109.348 68.9165 109.348C60.1581 109.348 52.9845 116.526 52.9845 125.29V162.684Z" fill="#EBEBEB"/>
<path d="M46.8119 157.259H50.1484V162.767H46.8119V157.259Z" fill="#EBEBEB"/>
<path d="M152.914 160.764H156.251V162.684H152.914V160.764Z" fill="#EBEBEB"/>
<path d="M158.837 160.764H162.173V162.684H158.837V160.764Z" fill="#EBEBEB"/>
<path d="M79.8346 310.922C37.6311 310.922 3.41841 306.699 3.41841 301.49C3.41841 296.281 37.6311 292.058 79.8346 292.058C122.038 292.058 156.251 296.281 156.251 301.49C156.251 306.699 122.038 310.922 79.8346 310.922Z" fill="#C4C4C4"/>
<path d="M145.491 76.0445L149.244 71.3704L154.5 74.7091C154.5 74.7091 152.08 77.2966 149.161 80.8857L145.491 76.0445Z" fill="#D8A39D"/>
<path d="M98.2784 76.3783C98.5287 76.8791 98.6121 77.1295 98.8623 77.4634L99.3628 78.465C99.6965 79.1328 100.114 79.8005 100.447 80.3848C101.198 81.6368 101.949 82.8888 102.783 84.1408C104.368 86.6448 106.119 89.0654 108.121 91.4025C110.123 93.7396 112.375 95.9932 115.045 97.9964C116.379 98.998 117.881 99.9161 119.549 100.751L120.8 101.335L122.135 101.836C122.552 102.003 123.052 102.086 123.553 102.253L123.887 102.337C123.97 102.337 124.22 102.42 124.387 102.42C124.721 102.504 125.138 102.587 125.471 102.587C126.889 102.754 128.141 102.587 129.308 102.42C130.393 102.17 131.394 101.919 132.311 101.502C134.146 100.751 135.564 99.9161 136.983 99.0815C139.735 97.3287 141.987 95.3254 144.073 93.3222C146.241 91.319 148.16 89.2323 150.079 87.1456C150.996 86.0606 151.997 85.0589 152.915 83.9739C153.832 82.8888 154.75 81.8037 155.667 80.6352L146.408 73.457C145.658 74.3751 144.823 75.3767 143.989 76.3783C143.155 77.3799 142.321 78.2981 141.403 79.2997C139.652 81.2194 137.9 82.9723 135.982 84.6416C134.146 86.311 132.228 87.8134 130.393 88.9819C129.475 89.5662 128.558 89.9835 127.89 90.2339C127.14 90.4843 126.639 90.4843 126.806 90.4843C126.806 90.4843 126.806 90.4843 126.889 90.4843C126.889 90.4843 126.973 90.4843 126.889 90.4843L126.723 90.4009C126.556 90.3174 126.389 90.3174 126.139 90.2339L125.555 89.9835L124.971 89.6496C124.22 89.2323 123.386 88.648 122.635 88.0638C121.05 86.8118 119.466 85.1424 118.048 83.3061C116.629 81.4698 115.295 79.3832 114.044 77.2965C113.46 76.2114 112.876 75.1263 112.292 74.0412C112.042 73.457 111.791 72.9562 111.541 72.3719L111.208 71.5372C111.124 71.2868 110.957 70.9529 110.874 70.786L98.2784 76.3783Z" fill="#54AEE3"/>
<path d="M100.114 209.759H73.1708L83.4307 158.761H96.6101L100.114 209.759Z" fill="#AFC95F"/>
<path opacity="0.6" d="M100.114 209.759H73.1708L83.4307 158.761H96.6101L100.114 209.759Z" fill="white"/>
<path d="M94.3579 293.811H101.198L101.531 277.952H94.6082L94.3579 293.811Z" fill="#BA928D"/>
<path d="M56.3212 293.811H63.1611L66.2474 277.952H59.4075L56.3212 293.811Z" fill="#BA928D"/>
<path d="M63.6617 293.06H55.9876C55.7374 293.06 55.4871 293.227 55.4037 293.561L54.2359 299.654C54.1525 300.322 54.653 300.906 55.2369 300.906C57.9061 300.823 59.2408 300.739 62.6607 300.739C64.7461 300.739 69.0836 300.989 71.9197 300.989C74.7557 300.989 75.0894 298.152 73.9216 297.901C68.5831 296.733 66.5812 295.147 64.8295 293.644C64.4958 293.227 64.0788 293.06 63.6617 293.06Z" fill="#263238"/>
<path d="M101.115 293.06H93.6074C93.3572 293.06 93.1069 293.227 93.0235 293.561L91.8557 299.654C91.7723 300.322 92.1893 300.906 92.8567 300.906C95.5259 300.823 99.4464 300.739 102.866 300.739C106.87 300.739 107.12 300.989 111.792 300.989C114.628 300.989 115.295 298.152 114.127 297.901C108.705 296.733 107.454 296.566 102.783 293.728C102.282 293.31 101.699 293.06 101.115 293.06Z" fill="#263238"/>
<path d="M151.83 69.7844L156.251 69.7009L157.085 75.4602C157.085 75.4602 152.748 76.3783 148.661 74.6255L148.744 72.7892C148.827 71.1199 150.162 69.7844 151.83 69.7844Z" fill="#D8A39D"/>
<path d="M163.175 70.0348L162.34 73.6239L157.085 75.4602L156.251 69.7009L163.175 70.0348Z" fill="#D8A39D"/>
<path opacity="0.2" d="M101.531 277.952L101.365 286.132H94.4413L94.6082 277.952H101.531Z" fill="black"/>
<path opacity="0.2" d="M59.4075 277.952H66.2474L64.6626 286.132H57.8227L59.4075 277.952Z" fill="black"/>
<path d="M109.623 72.1214C111.541 79.3831 114.961 97.746 111.208 126.96H74.5055C74.1718 121.868 76.5074 98.6641 72.3367 74.6255C71.586 70.4521 74.5055 66.5291 78.6762 66.1118C80.0942 65.9448 81.5957 65.8614 83.0971 65.7779C87.7683 65.5275 94.358 65.8614 98.4453 66.2787C100.864 66.5291 103.116 67.0299 104.868 67.4473C107.204 68.0315 109.039 69.8678 109.623 72.1214Z" fill="white"/>
<path d="M84.7655 51.1711C85.8499 56.1792 86.5172 62.4393 83.0972 65.778C83.0972 65.778 85.266 70.8695 94.525 70.8695C103.033 70.8695 98.6957 65.778 98.6957 65.778C93.107 64.4425 93.1904 57.5147 94.1079 53.5917L84.7655 51.1711Z" fill="#D8A39D"/>
<path d="M95.0253 70.1182L97.0273 72.3719C97.1941 72.5388 97.1941 72.7892 97.1941 72.9561L96.5268 74.9593C96.4434 75.2098 96.2765 75.3767 96.0263 75.3767L93.8575 75.4602C93.6907 75.4602 93.4405 75.3767 93.3571 75.2097L92.0224 73.29C91.8556 73.0396 91.8556 72.7892 92.0224 72.5388L94.1078 70.1182C94.358 69.8678 94.7751 69.8678 95.0253 70.1182Z" fill="#2B4C6E"/>
<path d="M95.5257 75.2932C95.5257 75.2932 98.8623 99.8327 98.9457 104.173C99.0291 110.016 97.0272 116.109 97.0272 116.109C97.0272 116.109 94.775 111.769 94.3579 104.006C93.9409 96.327 94.4413 79.717 94.2745 75.2932H95.5257V75.2932Z" fill="#2B4C6E"/>
<path opacity="0.2" d="M94.1077 53.5917C93.6072 55.8453 93.3569 59.184 94.3579 61.855C93.6906 62.1054 90.9379 61.1038 89.7701 60.3526C87.2677 58.7667 86.2667 57.1808 85.2658 53.7586C85.0989 52.8405 84.9321 52.0058 84.7653 51.1711L94.1077 53.5917Z" fill="black"/>
<path d="M102.783 48.6672C102.116 50.3365 100.781 51.5885 99.3629 52.1728C97.2776 53.0075 95.9429 51.1712 96.2766 49.0845C96.6103 47.1648 98.0283 44.4103 100.197 44.4938C102.449 44.4938 103.534 46.7474 102.783 48.6672Z" fill="#D8A39D"/>
<path opacity="0.2" d="M102.783 48.6672C102.116 50.3365 100.781 51.5885 99.3629 52.1728C97.2776 53.0075 95.9429 51.1712 96.2766 49.0845C96.6103 47.1648 98.0283 44.4103 100.197 44.4938C102.449 44.4938 103.534 46.7474 102.783 48.6672Z" fill="black"/>
<path d="M94.3581 41.155C94.7751 44.0764 96.6102 46.2465 98.4453 45.9961C100.28 45.7457 101.532 43.1582 101.115 40.2369C100.698 37.3155 98.8624 35.1454 97.0273 35.3958C95.1088 35.6462 93.941 38.2337 94.3581 41.155Z" fill="#263238"/>
<path d="M81.5124 44.6607C83.1806 51.3381 83.8479 55.3445 87.8518 58.1824C93.8576 62.5227 101.532 58.0155 101.865 51.0877C102.116 44.8276 99.3629 34.9785 92.3561 33.3926C85.4328 31.7232 79.8441 37.9833 81.5124 44.6607Z" fill="#D8A39D"/>
<path d="M92.6065 30.972C96.6103 31.8067 101.031 35.0619 97.1942 37.4825C93.3572 39.8196 84.7656 40.2369 84.7656 40.2369C84.7656 40.2369 87.6017 46.9143 83.6812 50.3365C82.3466 49.6687 85.1826 55.5115 85.1826 55.5115C85.1826 55.5115 83.1807 55.0106 81.8461 52.6736C79.5105 52.0893 72.6706 40.9881 77.2583 37.8163C78.1759 31.3893 87.268 29.8035 92.6065 30.972Z" fill="#263238"/>
<path d="M82.9302 48.6672H83.0136L89.0195 45.9128C89.1029 45.8293 89.1863 45.7458 89.1029 45.6624C89.0195 45.5789 88.9361 45.4954 88.8526 45.5789L82.8468 48.3333C82.7634 48.4168 82.68 48.5002 82.7634 48.5837C82.7634 48.5837 82.8468 48.6672 82.9302 48.6672Z" fill="white"/>
<path d="M79.9275 52.5901C81.1787 54.0091 82.9304 54.6768 84.4318 54.7603C86.684 54.8437 87.2679 52.7571 86.1835 50.8373C85.1826 49.168 82.847 46.9978 80.845 47.8325C78.7597 48.5002 78.5095 51.0042 79.9275 52.5901Z" fill="#D8A39D"/>
<path d="M111.208 126.96C111.208 126.96 113.376 178.292 113.21 199.243C112.959 221.028 103.951 284.546 103.951 284.546H92.3561C92.3561 284.546 93.4405 222.28 92.3561 200.912C91.1883 177.625 87.1844 126.96 87.1844 126.96H111.208V126.96Z" fill="#2B4C6E"/>
<path d="M91.6887 279.455C91.6053 279.455 91.4385 284.797 91.4385 284.797H104.868L105.619 278.954L91.6887 279.455Z" fill="#263238"/>
<path opacity="0.2" d="M95.4425 140.565C95.8596 166.023 94.6918 181.547 91.8558 193.984C91.1885 181.798 90.0207 165.772 89.0197 152.417L95.4425 140.565Z" fill="black"/>
<path d="M98.1951 126.96C98.1951 126.96 91.6888 179.461 87.9351 199.076C83.7644 220.61 67.9158 284.546 67.9158 284.546H55.3203C55.3203 284.546 65.2465 222.363 67.4153 201.079C69.7509 177.958 74.5889 126.96 74.5889 126.96H98.1951Z" fill="#2B4C6E"/>
<path d="M55.5706 279.705C55.4871 279.705 54.653 284.797 54.653 284.797H68.4997L70.0011 279.204L55.5706 279.705Z" fill="#263238"/>
<path d="M91.9391 44.8276C92.0225 45.4119 92.4396 45.7458 92.7732 45.7458C93.1069 45.6623 93.3571 45.1615 93.1903 44.6607C93.1069 44.0764 92.6898 43.7426 92.3562 43.7426C92.0225 43.7426 91.8557 44.2434 91.9391 44.8276Z" fill="#263238"/>
<path d="M98.6956 43.2417C98.7791 43.826 99.1961 44.1598 99.5298 44.1598C99.8635 44.0764 100.114 43.5756 99.9469 43.0748C99.8635 42.4905 99.4464 42.1566 99.1127 42.1566C98.7791 42.1566 98.6122 42.6574 98.6956 43.2417Z" fill="#263238"/>
<path d="M95.8595 51.3381C95.943 51.3381 96.0264 51.2547 96.0264 51.1712C96.0264 51.0877 95.943 51.0043 95.8595 51.0043C93.5239 51.4216 92.0225 49.9192 92.0225 49.9192C91.9391 49.8357 91.8556 49.8357 91.7722 49.9192C91.6888 50.0026 91.6888 50.0861 91.7722 50.1696C91.7722 50.1696 93.2737 51.7555 95.8595 51.3381Z" fill="#263238"/>
<path d="M88.686 42.9913C88.7694 42.9913 88.8528 42.9079 88.9362 42.8244C89.4367 41.4889 90.6045 41.2385 90.6045 41.2385C90.7713 41.2385 90.8547 41.0716 90.8547 40.8212C90.8547 40.6543 90.6045 40.4873 90.4377 40.5708C90.3543 40.5708 88.9362 40.9047 88.2689 42.574C88.1855 42.7409 88.2689 42.9079 88.4358 42.9913C88.5192 42.9913 88.6026 42.9913 88.686 42.9913Z" fill="#263238"/>
<path d="M100.364 40.5708C100.447 40.5708 100.447 40.5708 100.531 40.4874C100.697 40.4039 100.697 40.1535 100.531 39.9866C99.3629 38.5676 97.8614 38.7346 97.8614 38.7346C97.6946 38.7346 97.5278 38.9015 97.6112 39.0684C97.6112 39.2354 97.778 39.4023 97.9448 39.3188C98.0283 39.3188 99.1126 39.2354 100.114 40.3204C100.197 40.5709 100.28 40.6543 100.364 40.5708Z" fill="#263238"/>
<path d="M92.106 48.6671C92.2728 48.6671 92.4396 48.6671 92.6064 48.5837C93.3572 48.4167 94.0245 47.9994 94.525 47.3317C95.1089 46.497 95.2757 45.4119 95.1089 44.4103C94.7752 42.4071 93.0235 41.0716 91.2718 41.322C90.5211 41.4889 89.8538 41.9063 89.3533 42.574C88.7694 43.4087 88.6026 44.4938 88.7694 45.4954C89.0197 47.4151 90.5211 48.6671 92.106 48.6671ZM91.7723 41.8228C93.1069 41.8228 94.4415 42.9913 94.6918 44.5772C94.8586 45.4954 94.6918 46.497 94.1913 47.1647C93.7742 47.749 93.1903 48.1663 92.523 48.2498C91.0216 48.5002 89.5201 47.3317 89.1865 45.4954C89.0197 44.5772 89.1865 43.5756 89.687 42.9079C90.104 42.3236 90.6879 41.9063 91.3552 41.8228C91.4387 41.8228 91.6055 41.8228 91.7723 41.8228Z" fill="white"/>
<path d="M94.8587 44.7442C94.9421 44.7442 95.0255 44.7442 95.0255 44.6607C95.6928 43.6591 96.527 43.993 96.527 43.993C96.6104 44.0764 96.7772 43.993 96.7772 43.9095C96.8606 43.826 96.7772 43.6591 96.6938 43.6591C96.6938 43.6591 95.526 43.1583 94.6085 44.4103C94.5251 44.4938 94.6085 44.6607 94.6919 44.7442C94.7753 44.7442 94.8587 44.7442 94.8587 44.7442Z" fill="white"/>
<path d="M99.78 46.9143C99.9468 46.9143 100.114 46.9143 100.28 46.8309C101.031 46.6639 101.699 46.2466 102.199 45.5788C102.783 44.7442 102.95 43.6591 102.783 42.6575C102.449 40.6543 100.698 39.3188 98.9458 39.5692C98.1951 39.7361 97.5278 40.1535 97.0273 40.8212C96.4434 41.6559 96.2766 42.7409 96.4434 43.7426C96.7771 45.6623 98.1951 46.9143 99.78 46.9143ZM99.4463 39.9865C100.781 39.9865 102.116 41.1551 102.366 42.7409C102.533 43.6591 102.366 44.6607 101.865 45.3284C101.448 45.9127 100.864 46.33 100.197 46.4135C98.6956 46.6639 97.1941 45.4954 96.8605 43.6591C96.6937 42.7409 96.8605 41.7393 97.361 41.0716C97.778 40.4873 98.362 40.07 99.0293 39.9865C99.1961 40.07 99.3629 39.9865 99.4463 39.9865Z" fill="white"/>
<path d="M65.9973 294.229C66.4977 294.229 66.9982 294.145 67.3319 293.895C67.5821 293.728 67.6655 293.394 67.6655 293.06C67.6655 292.81 67.4987 292.643 67.4153 292.559C66.6646 292.142 64.4958 293.561 64.2456 293.728C64.1622 293.728 64.1622 293.811 64.1622 293.895C64.1622 293.978 64.2456 293.978 64.329 294.062C64.6626 294.145 65.33 294.229 65.9973 294.229ZM66.9148 292.81C66.9982 292.81 67.0816 292.81 67.165 292.81C67.2485 292.81 67.2485 292.893 67.2485 292.976C67.2485 293.227 67.165 293.394 67.0816 293.561C66.748 293.895 65.8304 293.895 64.6626 293.644C65.4134 293.31 66.4143 292.81 66.9148 292.81Z" fill="#AFC95F"/>
<path d="M64.1622 293.978C64.2456 293.978 64.2456 293.978 64.1622 293.978C64.9129 293.561 66.2475 292.058 66.0807 291.307C66.0807 291.14 65.9139 290.89 65.5802 290.89C65.33 290.89 65.0798 290.89 64.9129 291.057C64.1622 291.725 63.9954 293.728 63.9954 293.811C63.9954 293.895 63.9954 293.895 64.0788 293.978C64.1622 293.978 64.1622 293.978 64.1622 293.978ZM65.4968 291.224C65.4968 291.224 65.5802 291.224 65.4968 291.224C65.747 291.224 65.8304 291.391 65.8304 291.391C65.9139 291.808 65.0798 292.977 64.4125 293.477C64.4959 292.893 64.6627 291.725 65.1632 291.307C65.2466 291.307 65.4134 291.224 65.4968 291.224Z" fill="#AFC95F"/>
<path d="M104.034 294.229C104.701 294.229 105.369 294.145 105.702 293.811C105.953 293.644 106.036 293.31 105.953 293.06C105.953 292.893 105.869 292.726 105.702 292.643C104.868 292.142 102.116 293.561 101.865 293.728C101.782 293.728 101.782 293.811 101.782 293.895C101.782 293.978 101.865 293.978 101.949 294.062C102.449 294.145 103.283 294.229 104.034 294.229ZM105.202 292.81C105.369 292.81 105.452 292.81 105.536 292.893C105.619 292.893 105.619 292.976 105.619 293.06C105.619 293.31 105.619 293.477 105.452 293.561C105.035 293.895 103.951 293.978 102.366 293.728C103.367 293.31 104.618 292.81 105.202 292.81Z" fill="#AFC95F"/>
<path d="M101.865 293.978C101.949 293.978 101.949 293.978 101.865 293.978C102.783 293.561 104.368 292.142 104.201 291.307C104.201 291.14 104.034 290.89 103.617 290.89C103.283 290.89 102.95 290.973 102.699 291.14C101.865 291.891 101.699 293.728 101.699 293.811C101.699 293.895 101.699 293.895 101.782 293.978C101.782 293.978 101.865 293.978 101.865 293.978ZM103.534 291.224H103.617C103.951 291.224 103.951 291.391 103.951 291.391C104.034 291.892 102.95 293.06 102.116 293.561C102.199 293.06 102.449 291.891 102.95 291.474C103.117 291.307 103.283 291.224 103.534 291.224Z" fill="#AFC95F"/>
<path d="M82.7636 65.2771L74.8392 66.1952C72.0866 66.5291 70.0846 68.8662 70.1681 71.6206C70.5851 83.9738 72.17 101.001 70.9188 126.96C70.2515 140.064 61.0759 211.178 61.0759 211.178L79.0934 214.35C79.0934 214.35 91.9391 175.955 97.0274 130.465C99.2795 110.934 97.1942 93.2387 97.1942 93.2387L82.7636 65.2771Z" fill="#54AEE3"/>
<path opacity="0.2" d="M76.1738 81.0525C76.1738 82.8888 74.7558 92.3206 71.2524 98.8311C71.169 94.4073 71.0022 90.3174 70.8354 86.6448L76.1738 81.0525Z" fill="#2B4C6E"/>
<path opacity="0.2" d="M110.29 79.3832C111.291 81.3029 114.21 89.5662 115.712 98.5807C115.045 98.0799 114.377 97.5791 113.793 97.0783C111.374 95.0751 109.289 92.9049 107.454 90.7348C107.37 90.5678 107.204 90.4009 107.12 90.3174L110.29 79.3832Z" fill="#AFC95F"/>
<path d="M99.4465 66.1118L104.118 66.6961C108.789 67.2804 112.292 71.1199 112.459 75.794C112.959 89.6497 114.044 117.361 114.628 127.043C115.462 140.148 114.878 211.262 114.878 211.262L103.617 213.265C103.617 213.265 100.781 174.119 97.0274 130.549C95.4426 111.935 96.3601 91.7363 96.3601 91.7363L99.4465 66.1118Z" fill="#54AEE3"/>
<path d="M94.6082 69.9514C93.0233 72.4554 92.1057 75.2933 92.1057 75.2933C92.1057 75.2933 81.1785 71.5372 81.5122 65.5276C81.5122 65.5276 83.1804 64.526 84.1814 63.7748C84.1814 63.6913 84.6819 67.5308 94.6082 69.9514Z" fill="#F5F5F5"/>
<path d="M94.6082 69.9514C96.777 72.4554 97.6946 74.709 97.6946 74.709C97.6946 74.709 102.199 71.7042 100.447 65.6945C100.447 65.6945 98.9458 65.0268 97.4443 64.7764C97.4443 64.7764 98.1951 68.6159 94.6082 69.9514Z" fill="#F5F5F5"/>
<path opacity="0.2" d="M83.1804 130.632L70.6684 141.4L79.26 137.226L83.1804 130.632Z" fill="#2B4C6E"/>
<path d="M70.5852 69.3671C70.0847 70.1183 69.6677 70.7025 69.1672 71.3703L67.916 73.29C67.0818 74.5421 66.2477 75.8775 65.497 77.213C63.9121 79.884 62.4107 82.5549 61.076 85.3928C59.7414 88.2307 58.4902 91.1521 57.4892 94.3238C56.9887 95.9097 56.5717 97.5791 56.238 99.3319C55.9044 101.085 55.7375 103.004 55.821 104.924C55.9878 108.68 56.7385 112.102 57.8229 115.191C58.9073 118.362 60.2419 121.284 61.7433 124.038C63.2448 126.793 64.9131 129.464 66.5814 131.968C67.4155 133.22 68.333 134.472 69.2506 135.724C69.7511 136.308 70.1682 136.976 70.6686 137.56C71.1691 138.144 71.5862 138.729 72.2535 139.48L81.0954 131.801C80.7617 131.383 80.2612 130.799 79.9276 130.298L78.6764 128.712C77.8422 127.627 77.0915 126.542 76.3408 125.374C74.8393 123.12 73.4213 120.783 72.2535 118.446C71.0023 116.109 70.0013 113.688 69.2506 111.351C68.4999 109.014 68.0828 106.677 68.0828 104.674C68.0828 102.754 68.5833 100.584 69.4174 98.2468C70.2516 95.9097 71.3359 93.5726 72.5872 91.2355C73.8384 88.8985 75.2564 86.5614 76.7578 84.3077C77.5086 83.1392 78.3427 82.0541 79.0935 80.969L80.3447 79.2997C80.7617 78.7989 81.1788 78.2146 81.5125 77.7973L70.5852 69.3671Z" fill="#54AEE3"/>
<path d="M81.846 83.8904C82.3465 85.1424 83.8479 85.9771 85.1825 85.6432C86.5171 85.3094 87.1844 83.9739 86.6005 82.7219C86.1001 81.4698 84.5986 80.6352 83.264 80.969C82.0128 81.3029 81.3455 82.5549 81.846 83.8904Z" fill="#263238"/>
<path opacity="0.2" d="M81.846 83.8904C82.3465 85.1424 83.8479 85.9771 85.1825 85.6432C86.5171 85.3094 87.1844 83.9739 86.6005 82.7219C86.1001 81.4698 84.5986 80.6352 83.264 80.969C82.0128 81.3029 81.3455 82.5549 81.846 83.8904Z" fill="white"/>
<path d="M84.5985 82.555C84.6819 82.555 84.7654 82.555 84.7654 82.4715C84.9322 82.388 84.9322 82.1376 84.8488 82.0542C78.6761 73.457 80.3444 65.778 80.4278 65.6945C80.4278 65.5276 80.3444 65.3607 80.1776 65.2772C80.0107 65.1937 79.8439 65.3607 79.7605 65.5276C79.7605 65.6111 77.9254 73.5405 84.3483 82.4715C84.4317 82.555 84.5151 82.555 84.5985 82.555Z" fill="#263238"/>
<path d="M106.203 78.2146C106.37 78.2146 106.536 78.0477 106.536 77.8808C107.204 69.3671 102.699 66.2788 102.533 66.1118C102.366 66.0284 102.199 66.0284 102.115 66.1953C102.032 66.3622 102.032 66.5292 102.199 66.6126C102.282 66.6126 106.536 69.7009 105.952 77.7973C105.869 78.0477 106.036 78.2146 106.203 78.2146Z" fill="#263238"/>
<path d="M82.7634 83.64C83.2639 84.8921 84.7654 85.7267 86.1 85.3929C87.4346 85.059 88.1019 83.7235 87.518 82.4715C87.0175 81.2195 85.5161 80.3848 84.1814 80.7187C82.9302 81.0525 82.2629 82.388 82.7634 83.64Z" fill="#263238"/>
<path opacity="0.4" d="M82.7634 83.64C83.2639 84.8921 84.7654 85.7267 86.1 85.3929C87.4346 85.059 88.1019 83.7235 87.518 82.4715C87.0175 81.2195 85.5161 80.3848 84.1814 80.7187C82.9302 81.0525 82.2629 82.388 82.7634 83.64Z" fill="white"/>
<path opacity="0.4" d="M84.1813 83.2227C84.4316 83.8904 85.2657 84.3078 85.933 84.1408C86.6004 83.9739 86.934 83.3062 86.6838 82.6384C86.4335 81.9707 85.5994 81.5533 84.9321 81.7203C84.2648 81.8037 83.8477 82.555 84.1813 83.2227Z" fill="white"/>
<path d="M103.7 97.9131C103.867 97.9131 104.034 97.7461 104.034 97.5792C104.034 97.4123 103.867 97.2453 103.7 97.2453C102.449 97.2453 101.365 96.2437 101.281 94.9917L100.697 84.1409C100.614 82.5551 101.114 81.0526 102.199 79.9676C103.283 78.8825 104.701 78.2147 106.286 78.2147C109.539 78.2147 112.375 80.8857 112.542 84.1409L113.126 94.9917C113.126 95.576 112.959 96.1603 112.542 96.5776C112.125 96.9949 111.625 97.2453 110.957 97.2453C110.79 97.2453 110.624 97.4123 110.624 97.5792C110.624 97.7461 110.79 97.9131 110.957 97.9131C111.708 97.9131 112.459 97.5792 112.959 97.0784C113.46 96.4941 113.71 95.8264 113.71 94.9917L113.126 84.1409C112.959 80.5518 109.79 77.547 106.203 77.547C104.451 77.547 102.866 78.2147 101.698 79.4668C100.531 80.7188 99.9467 82.3881 100.03 84.1409L100.614 94.9917C100.697 96.6611 102.115 97.9131 103.7 97.9131Z" fill="#263238"/>
<path d="M110.457 97.5793C110.457 98.0801 110.791 98.4975 111.041 98.4975C111.374 98.4975 111.541 98.0801 111.541 97.5793C111.541 97.0785 111.208 96.6611 110.957 96.6611C110.707 96.6611 110.457 97.0785 110.457 97.5793Z" fill="#263238"/>
<path d="M103.116 97.5793C103.116 98.0801 103.45 98.4975 103.7 98.4975C104.034 98.4975 104.201 98.0801 104.201 97.5793C104.201 97.0785 103.867 96.6611 103.617 96.6611C103.367 96.6611 103.116 97.0785 103.116 97.5793Z" fill="#263238"/>
<path d="M170.348 31.7233L170.932 31.3059C169.597 29.4697 167.929 28.0507 165.927 27.0491C162.59 25.2963 158.753 25.0459 155.25 26.2144L155.5 26.8822C158.92 25.7971 162.507 26.0475 165.677 27.7168C167.512 28.635 169.097 29.9705 170.348 31.7233Z" fill="#6695B1"/>
<path d="M172.85 39.1519H173.601C173.601 37.8164 173.351 36.4809 172.934 35.2289L172.266 35.4793C172.6 36.6478 172.767 37.8998 172.85 39.1519Z" fill="#6695B1"/>
<path d="M133.646 39.7362C136.399 33.7265 143.572 31.3059 149.328 34.2273C152.247 28.5515 159.254 26.2979 164.926 29.3862C170.515 32.391 172.433 39.4858 169.514 45.0781L162.007 59.7684C160.505 62.7732 156.835 63.9418 153.832 62.4393L139.151 54.9273C133.646 52.0894 131.06 45.412 133.646 39.7362Z" fill="#FFC3BD"/>
</g>
<defs>
<clipPath id="clip0_786:3382">
<rect width="196" height="311" fill="white" transform="matrix(-1 0 0 1 196 0)"/>
</clipPath>
</defs>
</svg>
