<svg width="125" height="137" viewBox="0 0 125 137" fill="none" xmlns="http://www.w3.org/2000/svg">
<path d="M111.345 81.0488C107.239 70.1974 97.3764 65.2268 92.7085 63.6866C91.0589 63.1265 88.0756 62.1814 84.9519 61.1663C79.3363 59.3461 73.1591 57.3858 73.1591 57.3858H53.7501C53.7501 57.3858 47.0113 59.6261 39.8865 62.1464C33.2881 64.4567 26.3739 66.977 24.0224 68.1322C19.1438 70.5475 10.9309 87.9447 9.28135 89.94C8.439 90.9551 4.61336 97.7459 0.85791 105.307H21.7761C23.9873 101.526 25.707 98.5861 25.707 98.5861C25.707 98.5861 27.0408 101.491 28.6202 105.307H95.6567C96.7096 100.861 97.3764 95.2606 97.3764 95.2606C97.3764 95.2606 100.956 100.126 104.887 105.307H124.191C119.488 97.3959 113.662 87.1746 111.345 81.0488Z" fill="#6695B1"/>
<path d="M65.7886 4.14399C65.7886 4.14399 80.9859 6.52429 78.6694 30.2223C76.353 53.9203 62.9457 51.9601 62.0683 51.9601C61.1557 51.9251 48.6259 52.3801 47.6431 23.4665C47.608 23.4665 47.1869 2.07872 65.7886 4.14399Z" fill="#EEA886"/>
<path d="M78.915 23.5365C78.915 23.5365 80.5646 21.7512 81.1964 23.5715C81.793 25.3567 78.915 33.3727 78.8097 33.7228C78.8097 33.7228 78.4938 34.4229 78.1077 34.0378C77.6865 33.6528 78.915 23.5365 78.915 23.5365Z" fill="#EEA886"/>
<path d="M48.0291 23.2564C48.0291 23.2564 46.4146 21.4362 45.7478 23.2214C45.116 25.0067 47.7834 33.0577 47.9238 33.4427C47.9238 33.4427 48.2046 34.1428 48.6258 33.7578C49.0469 33.3727 48.0291 23.2564 48.0291 23.2564Z" fill="#EEA886"/>
<path d="M78.88 27.1769L76.704 30.0823C76.704 30.0823 76.7742 23.7115 76.4232 22.7314C76.0722 21.7512 75.5457 18.7059 75.265 17.9708C74.9842 17.2707 62.2086 13.7002 50.9774 19.0209C50.9774 19.0209 51.4688 23.6065 50.3807 23.9915C49.2927 24.4116 49.8192 31.4475 49.8192 31.4475L48.0292 29.4522C48.0292 29.4522 45.2916 11.2149 45.9584 9.32466C46.6253 7.43442 48.8013 -4.01204 71.8956 2.77883C71.8956 2.77883 79.0906 1.27363 80.5296 6.20926C82.0037 11.1449 78.88 27.1769 78.88 27.1769Z" fill="#434343"/>
<path d="M75.0543 56.9657C75.0543 56.9307 73.0888 56.0206 73.0888 56.0206C72.1412 53.9203 72.8431 44.9942 72.8431 44.9942C72.8431 44.9942 53.5043 40.0936 54.0659 43.8391C54.6274 47.5845 52.4163 56.3007 52.4163 56.3007L42.4836 61.2013C42.4836 61.2013 53.048 89.5199 65.1918 85.8444C77.3356 82.204 81.9334 60.1511 81.9334 60.1511L75.0543 56.9657Z" fill="#EEA886"/>
<path d="M54.3818 48.0046C54.3818 48.0046 57.5055 52.0301 62.9106 52.0301C66.4554 52.0301 69.0176 51.05 72.5624 47.5845C72.5624 47.5845 71.0181 54.1304 62.9457 54.7254C62.9106 54.7254 57.0493 55.4605 54.3818 48.0046Z" fill="#A77860"/>
<path d="M70.9129 131.105H56.4878V133.766H70.9129V131.105Z" fill="#4598E6"/>
<path d="M106.888 28.3321V30.9224H122.261V45.3093H124.858V28.3321H106.888ZM2.54248 45.3093H5.13971V30.9224H20.5125V28.3321H2.54248V45.3093ZM122.225 119.519V133.906H106.853V136.496H124.858V119.519H122.225ZM5.13971 119.519H2.54248V136.496H20.5125V133.906H5.13971V119.519Z" fill="#AFC95F"/>
</svg>
