<svg width="873" height="664" viewBox="0 0 873 664" fill="none" xmlns="http://www.w3.org/2000/svg">
<path d="M671.48 809.246C702.546 787.798 710.253 749.835 699.999 705.172C689.743 660.5 661.485 608.863 620.21 559.565C539.23 462.842 407.885 374.827 263.164 365.996C461.289 329.886 635.979 391.539 747.359 501.513C860.146 612.876 908.024 773.782 849.646 933.046C805.576 938.458 750.653 923.632 702.36 899.065C655.872 875.416 615.761 842.86 597.468 810.965C616.807 824.505 648.091 825.626 671.48 809.246Z" fill="#E7E7E7" stroke="white" stroke-width="2"/>
<path opacity="0.7" d="M214.633 432.396L214.633 432.404C217.577 470.088 246.555 495.784 290.348 509.263C334.149 522.743 393.011 524.105 456.366 513.015C580.66 491.257 722.632 421.501 802.62 300.563C734.694 490.172 593.994 610.6 443.11 651.961C290.314 693.847 127.074 654.66 18.2295 524.103C35.7043 483.324 75.9273 443.347 121.259 413.959C164.815 385.723 212.87 367.402 249.687 367.448C228.582 377.031 212.615 403.758 214.633 432.396Z" fill="white" stroke="white" stroke-width="2"/>
<path d="M769.266 225.083C735.024 208.933 698.187 221.218 664.548 252.39C630.901 283.568 600.247 333.795 578.146 394.126C534.786 512.49 524.22 670.112 588.95 799.888C458.763 646.379 424.939 464.37 464.602 313.114C504.768 159.942 620.285 38.2997 787.506 9.59246C814.099 44.9574 828.57 99.8395 831.414 153.835C834.148 205.731 826.129 256.546 808.045 288.198C810.156 264.738 795.504 237.182 769.266 225.083Z" fill="#F4F4F4" stroke="white" stroke-width="2"/>
</svg>
