<svg width="475" height="354" viewBox="0 0 475 354" fill="none" xmlns="http://www.w3.org/2000/svg">
<path d="M475 311.056H0V311.246H475V311.056Z" fill="#EBEBEB"/>
<path d="M427.405 326.353H395.96V326.543H427.405V326.353Z" fill="#EBEBEB"/>
<path d="M314.64 329.013H306.375V329.203H314.64V329.013Z" fill="#EBEBEB"/>
<path d="M395.01 317.612H376.77V317.802H395.01V317.612Z" fill="#EBEBEB"/>
<path d="M90.915 319.132H49.875V319.322H90.915V319.132Z" fill="#EBEBEB"/>
<path d="M105.355 319.132H99.3701V319.322H105.355V319.132Z" fill="#EBEBEB"/>
<path d="M213.94 323.217H124.925V323.407H213.94V323.217Z" fill="#EBEBEB"/>
<path d="M225.15 268.683H41.705C38.76 268.683 36.29 266.213 36.29 263.267V5.41546C36.29 2.47021 38.76 0 41.705 0H225.15C228.095 0 230.565 2.47021 230.565 5.41546V263.267C230.565 266.308 228.19 268.683 225.15 268.683ZM41.705 0.190016C38.855 0.190016 36.48 2.47021 36.48 5.41546V263.267C36.48 266.118 38.76 268.493 41.705 268.493H225.15C228 268.493 230.375 266.213 230.375 263.267V5.41546C230.375 2.56522 228.095 0.190016 225.15 0.190016H41.705Z" fill="#EBEBEB"/>
<path d="M430.635 268.683H247.19C244.245 268.683 241.775 266.213 241.775 263.267V5.41546C241.775 2.47021 244.245 0 247.19 0H430.635C433.58 0 436.05 2.47021 436.05 5.41546V263.267C436.05 266.308 433.675 268.683 430.635 268.683ZM247.19 0.190016C244.34 0.190016 241.965 2.47021 241.965 5.41546V263.267C241.965 266.118 244.245 268.493 247.19 268.493H430.635C433.485 268.493 435.86 266.213 435.86 263.267V5.41546C435.86 2.56522 433.58 0.190016 430.635 0.190016H247.19Z" fill="#EBEBEB"/>
<path d="M60.23 208.434L414.77 208.434V18.3228L60.23 18.3228V208.434Z" fill="#FAFAFA"/>
<path d="M311.505 75.8164C314.64 70.591 322.81 66.4106 329.745 66.4106C331.455 66.4106 332.88 66.6956 334.115 67.0757C338.865 63.2754 345.705 60.7101 351.69 60.7101C359.005 60.7101 362.9 64.5105 361.38 69.6409C368.125 69.9259 371.07 74.2013 367.935 79.4267C364.705 84.8422 356.155 89.2126 348.84 89.2126H306.66C301.435 89.2126 299.155 86.0773 301.435 82.277C303.43 79.3317 307.42 76.7665 311.505 75.8164Z" fill="white"/>
<path d="M226.575 51.2093C228.475 48.0741 233.415 45.5089 237.69 45.5089C238.735 45.5089 239.59 45.6989 240.35 45.8889C243.2 43.6087 247.38 41.9936 251.085 41.9936C255.55 41.9936 257.925 44.3688 257.07 47.409C261.155 47.599 262.96 50.2593 261.06 53.3945C259.065 56.7198 253.935 59.38 249.47 59.38H223.725C220.59 59.38 219.165 57.4799 220.495 55.1047C221.54 53.3945 224.01 51.7794 226.575 51.2093Z" fill="white"/>
<path d="M103.075 69.9259C104.975 66.7907 109.915 64.2254 114.19 64.2254C115.235 64.2254 116.09 64.4155 116.85 64.6055C119.7 62.3253 123.88 60.7101 127.585 60.7101C132.05 60.7101 134.425 63.0853 133.57 66.1256C137.655 66.3156 139.46 68.9758 137.56 72.1111C135.565 75.4364 130.435 78.0966 125.97 78.0966H100.225C97.0899 78.0966 95.6649 76.1965 96.9949 73.8212C98.0399 72.1111 100.51 70.496 103.075 69.9259Z" fill="white"/>
<path d="M155.8 55.9597H126.445V191.061H155.8V55.9597Z" fill="#E6E6E6"/>
<path d="M178.886 191.061H152.476V83.037L178.886 109.354V191.061Z" fill="#E6E6E6"/>
<path d="M117.42 100.519H88.0654V191.061H117.42V100.519Z" fill="#E6E6E6"/>
<path d="M202.255 89.3076H187.34V191.061H202.255V89.3076Z" fill="#E6E6E6"/>
<path d="M223.63 115.245H208.715V191.061H223.63V115.245Z" fill="#E6E6E6"/>
<path d="M234.84 140.137H219.925V191.061H234.84V140.137Z" fill="#E6E6E6"/>
<path d="M296.875 140.137H281.96V191.061H296.875V140.137Z" fill="#E6E6E6"/>
<path d="M282.625 156.193H267.71V191.061H282.625V156.193Z" fill="#E6E6E6"/>
<path d="M83.9804 140.137H69.0654V191.061H83.9804V140.137Z" fill="#E6E6E6"/>
<path d="M212.896 131.681H77.6157V191.061H212.896V131.681Z" fill="#E6E6E6"/>
<path d="M296.97 167.309H161.69V191.061H296.97V167.309Z" fill="#E6E6E6"/>
<path d="M278.939 208.455H324.349V73.3539H278.939V208.455Z" fill="#F0F0F0"/>
<path d="M243.01 208.448H284.05V100.424L243.01 126.836V208.448Z" fill="#F0F0F0"/>
<path d="M338.32 208.437H383.73V117.895H338.32V208.437Z" fill="#F0F0F0"/>
<path d="M206.791 208.462H229.971V106.708H206.791V208.462Z" fill="#F0F0F0"/>
<path d="M173.739 208.502H196.919V140.571H173.739V208.502Z" fill="#F0F0F0"/>
<path d="M156.312 208.427H179.492V157.502H156.312V208.427Z" fill="#F0F0F0"/>
<path d="M60.1886 208.427H83.3687V157.502H60.1886L60.1886 208.427Z" fill="#F0F0F0"/>
<path d="M82.36 208.434H105.54V173.566H82.36V208.434Z" fill="#F0F0F0"/>
<path d="M390.078 208.427H413.258V157.502H390.078V208.427Z" fill="#F0F0F0"/>
<path d="M190.469 208.421L400.039 208.421V149.041L190.469 149.041V208.421Z" fill="#F0F0F0"/>
<path d="M60.2186 208.45L269.789 208.45V184.698L60.2186 184.698V208.45Z" fill="#F0F0F0"/>
<path d="M413.292 208.434H414.812V18.3228H413.292V208.434Z" fill="#EBEBEB"/>
<path d="M86.6403 286.354C86.1653 286.354 85.6903 286.164 85.3103 285.879C84.3603 285.119 84.1703 283.789 84.9303 282.839C86.1653 281.319 83.1253 277.614 79.9903 273.813C73.1503 265.643 62.8903 253.291 76.9503 239.04C85.7853 230.109 85.5953 226.404 85.1203 225.169C84.2653 223.079 80.1803 222.604 78.7553 222.604C78.7553 222.604 78.7553 222.604 78.6603 222.604C77.4253 222.604 76.4753 221.654 76.4753 220.419C76.4753 219.184 77.4253 218.233 78.6603 218.233C79.5153 218.233 86.9253 218.328 89.1103 223.459C91.0103 227.924 88.0653 234.005 79.9903 242.08C68.7803 253.481 76.4753 262.697 83.3153 270.963C87.6853 276.188 91.7703 281.224 88.3503 285.499C87.8753 286.069 87.2103 286.354 86.6403 286.354Z" fill="#E0E0E0"/>
<path d="M54.9097 266.593H101.65L91.2947 311.056H65.2647L54.9097 266.593Z" fill="#F5F5F5"/>
<path d="M54.4349 268.588H102.125C103.265 268.588 104.12 267.733 104.12 266.593C104.12 265.452 103.265 264.597 102.125 264.597H54.4349C53.2949 264.597 52.4399 265.452 52.4399 266.593C52.4399 267.638 53.2949 268.588 54.4349 268.588Z" fill="#EBEBEB"/>
<path d="M94.715 219.659L50.5399 234.29C50.5399 234.29 34.5799 223.459 46.1699 218.614C40.6599 209.208 39.8999 190.776 57.7599 185.456C75.5249 180.135 74.2899 206.072 74.2899 206.072C74.2899 206.072 96.2349 182.89 95.1899 210.443C99.3699 209.303 117.04 213.483 94.715 219.659Z" fill="#E0E0E0"/>
<path d="M57.8549 239.61H111.435C111.435 239.61 125.59 229.634 110.77 230.109C113.715 217.378 105.45 203.412 86.7349 202.937C68.0199 202.462 74.5749 223.174 74.5749 223.174C74.5749 223.174 43.1299 215.668 52.6299 231.155C37.1449 231.915 45.1249 235.905 57.8549 239.61Z" fill="#E6E6E6"/>
<path d="M100.605 242.556L58.5201 244.076C56.4301 244.171 54.4351 243.126 53.0101 241.13C51.3951 238.85 51.0151 236.095 57.7601 235.24C55.5751 228.589 60.3251 216.998 77.8051 216.048C95.1901 215.193 86.4501 231.25 86.4501 231.25C86.4501 231.25 112.765 219.754 103.835 236.855C107.73 236.665 122.36 241.7 100.605 242.556Z" fill="#E0E0E0"/>
<path d="M372.02 230.012H151.24V234.287H372.02V230.012Z" fill="#F0F0F0"/>
<path d="M372.134 234.233H395.979V229.958H372.134V234.233Z" fill="#E6E6E6"/>
<path d="M154.592 236.401L392.282 236.401V234.311L154.592 234.311V236.401Z" fill="#E0E0E0"/>
<path d="M154.575 235.257V311.073H156.95V235.257H154.575Z" fill="#E0E0E0"/>
<path d="M369.697 235.299V311.115H372.072V235.299H369.697Z" fill="#E0E0E0"/>
<path d="M389.89 235.256V311.073H392.265V235.256H389.89Z" fill="#E0E0E0"/>
<path d="M174.768 235.31V311.126H177.143V235.31H174.768Z" fill="#E0E0E0"/>
<path d="M237.5 354C339.234 354 421.705 349.193 421.705 343.264C421.705 337.335 339.234 332.528 237.5 332.528C135.766 332.528 53.2949 337.335 53.2949 343.264C53.2949 349.193 135.766 354 237.5 354Z" fill="#F5F5F5"/>
<path d="M374.871 189.636H231.136V193.721H374.871V189.636Z" fill="#AFC95F"/>
<path opacity="0.2" d="M374.87 189.636H341.525V193.721H374.87V189.636Z" fill="black"/>
<path d="M345.61 345.639L338.105 193.721H340.005L347.51 345.639H345.61Z" fill="#AFC95F"/>
<path opacity="0.7" d="M345.61 345.639L338.105 193.721H340.005L347.51 345.639H345.61Z" fill="white"/>
<path d="M378.955 345.639L371.45 193.721H373.35L380.855 345.639H378.955Z" fill="#AFC95F"/>
<path d="M378.955 345.639L371.45 193.721H373.35L380.855 345.639H378.955Z" fill="#AFC95F"/>
<path opacity="0.7" d="M378.955 345.639L371.45 193.721H373.35L380.855 345.639H378.955Z" fill="white"/>
<path d="M260.396 345.639L267.901 193.721H266.001L258.496 345.639H260.396Z" fill="#AFC95F"/>
<path opacity="0.7" d="M260.396 345.639L267.901 193.721H266.001L258.496 345.639H260.396Z" fill="white"/>
<path d="M227.05 345.639L234.555 193.721H232.655L225.15 345.639H227.05Z" fill="#AFC95F"/>
<path opacity="0.7" d="M227.05 345.639L234.555 193.721H232.655L225.15 345.639H227.05Z" fill="white"/>
<path d="M315.781 158.663H361.951C363.471 158.663 364.516 159.899 364.231 161.419L360.336 186.976C360.146 188.496 358.721 189.731 357.201 189.731H311.031C309.511 189.731 308.466 188.496 308.751 186.976L312.646 161.419C312.836 159.899 314.261 158.663 315.781 158.663Z" fill="#AFC95F"/>
<path d="M315.02 158.663H361.19C362.71 158.663 363.755 159.899 363.47 161.419L359.575 186.976C359.385 188.496 357.96 189.731 356.44 189.731H310.27C308.75 189.731 307.705 188.496 307.99 186.976L311.885 161.419C312.17 159.899 313.595 158.663 315.02 158.663Z" fill="#AFC95F"/>
<path opacity="0.2" d="M315.02 158.663H361.19C362.71 158.663 363.755 159.899 363.47 161.419L359.575 186.976C359.385 188.496 357.96 189.731 356.44 189.731H310.27C308.75 189.731 307.705 188.496 307.99 186.976L311.885 161.419C312.17 159.899 313.595 158.663 315.02 158.663Z" fill="white"/>
<path opacity="0.8" d="M310.365 188.876C309.89 188.876 309.51 188.686 309.225 188.401C308.94 188.021 308.845 187.641 308.94 187.166L312.835 161.609C313.025 160.469 314.07 159.614 315.115 159.614H361.285C361.76 159.614 362.14 159.804 362.425 160.089C362.71 160.469 362.805 160.849 362.71 161.324L358.815 186.881C358.625 188.021 357.58 188.876 356.535 188.876H310.365Z" fill="white"/>
<path d="M296.875 188.686H358.15C358.72 188.686 359.1 189.161 359.005 189.731H295.735C295.735 189.066 296.305 188.686 296.875 188.686Z" fill="#AFC95F"/>
<path d="M246.335 333.288L240.255 336.709L232.75 322.267L238.83 318.847L246.335 333.288Z" fill="#FFB573"/>
<path d="M239.494 335.568L246.524 332.148C246.809 332.053 247.094 332.148 247.189 332.338L250.229 337.754C250.514 338.324 250.229 339.084 249.659 339.369C247.189 340.509 245.954 340.984 242.819 342.504C240.919 343.454 236.359 345.829 233.699 347.064C231.134 348.3 229.899 345.734 230.849 344.974C235.314 341.459 237.309 338.799 238.449 336.519C238.829 336.043 239.114 335.663 239.494 335.568Z" fill="#263238"/>
<path opacity="0.2" d="M238.83 318.847L232.75 322.267L236.645 329.678L242.82 326.638L238.83 318.847Z" fill="black"/>
<path d="M233.89 176.715C233.89 176.715 214.32 216.048 208.525 235.145C202.16 256.142 232.56 327.208 232.56 327.208L243.675 322.362C243.675 322.362 223.725 251.961 227.24 244.171C236.74 222.604 258.97 177.19 258.97 177.19L233.89 176.715Z" fill="#263238"/>
<path opacity="0.3" d="M241.205 200.277C235.885 209.208 233.605 225.359 233.32 235.81C236.36 229.349 239.59 222.604 242.63 216.333C244.625 210.348 246.62 204.552 248.52 199.707C248.045 196.192 245.29 193.436 241.205 200.277Z" fill="black"/>
<path d="M245.1 323.217L232.94 329.583L229.425 325.498L243.865 317.802L245.1 323.217Z" fill="#AFC95F"/>
<path d="M237.784 337.754C238.354 337.469 238.924 336.994 239.304 336.709C239.399 336.709 239.399 336.614 239.399 336.519C239.399 336.424 239.304 336.424 239.304 336.424C239.019 336.424 236.644 336.043 236.074 336.709C235.884 336.899 235.884 337.089 235.979 337.279C236.074 337.659 236.264 337.849 236.549 337.944C236.834 338.039 237.309 337.944 237.784 337.754ZM238.924 336.614C237.879 337.374 237.024 337.754 236.644 337.659C236.454 337.564 236.359 337.469 236.264 337.184C236.264 337.089 236.264 336.994 236.359 336.899C236.644 336.519 237.879 336.519 238.924 336.614Z" fill="#AFC95F"/>
<path d="M239.4 336.709C239.4 336.709 239.4 336.614 239.4 336.709C239.495 336.614 239.495 336.519 239.495 336.519C239.495 336.424 238.735 334.523 237.785 334.238C237.5 334.143 237.31 334.238 237.025 334.333C236.74 334.523 236.645 334.713 236.74 334.998C236.835 335.758 238.45 336.614 239.4 336.709C239.305 336.709 239.305 336.709 239.4 336.709ZM237.215 334.523C237.31 334.428 237.5 334.428 237.595 334.523C238.165 334.713 238.735 335.663 239.02 336.329C238.26 336.139 237.12 335.473 237.025 334.998C237.025 334.903 237.025 334.713 237.215 334.523C237.215 334.618 237.215 334.618 237.215 334.523Z" fill="#AFC95F"/>
<path d="M247.095 123.986C245.86 126.456 244.625 128.641 243.295 130.826C241.965 133.011 240.54 135.196 239.02 137.287C238.26 138.332 237.5 139.377 236.74 140.422C235.885 141.467 235.125 142.512 234.27 143.462C232.56 145.457 230.755 147.452 228.76 149.353C228.285 149.828 227.715 150.303 227.24 150.778C226.67 151.253 226.195 151.728 225.625 152.108L223.915 153.343C223.725 153.438 223.82 153.438 223.155 153.818C222.68 154.103 222.205 154.293 221.73 154.483C220.685 154.863 219.64 154.958 218.595 154.863C217.55 154.768 216.505 154.388 215.555 153.818C215.08 153.533 214.605 153.153 214.225 152.773C214.035 152.583 213.845 152.393 213.655 152.108C213.465 151.918 213.275 151.633 213.275 151.538C212.8 150.778 212.42 149.923 212.135 149.258C211.47 147.738 211.185 146.407 210.805 145.077C210.14 142.322 209.855 139.757 209.665 137.192C209.475 134.626 209.38 132.061 209.475 129.401C209.57 127.691 210.995 126.361 212.705 126.456C214.13 126.551 215.175 127.501 215.555 128.736V128.831C216.695 133.391 217.93 138.237 219.64 142.227C220.02 143.177 220.495 144.222 220.97 144.887C221.16 145.267 221.445 145.552 221.635 145.837C221.73 145.932 221.635 145.742 221.54 145.647C221.445 145.552 221.35 145.457 221.35 145.362C221.16 145.172 220.97 144.982 220.78 144.887C220.4 144.602 219.925 144.507 219.45 144.412C218.975 144.317 218.595 144.412 218.12 144.507C217.74 144.602 217.075 145.077 217.55 144.697L218.69 143.652C219.45 142.892 220.21 142.132 220.97 141.277C223.915 137.952 226.575 134.151 229.14 130.161C230.375 128.166 231.61 126.171 232.845 124.176C234.08 122.18 235.22 119.995 236.36 118.095L236.455 118C238.07 115.055 241.87 114.01 244.815 115.625C247.475 117.525 248.52 121.135 247.095 123.986Z" fill="#263238"/>
<path opacity="0.3" d="M230.28 140.612C229.805 142.797 229.33 146.217 229.33 149.163C229.615 148.878 229.9 148.593 230.28 148.213C232.655 145.742 234.84 143.177 236.74 140.612C237.595 139.567 238.355 138.427 239.115 137.287C239.59 136.052 239.97 134.911 240.445 133.676C240.54 133.296 240.73 132.916 240.825 132.441C237.785 130.921 232.18 132.441 230.28 140.612Z" fill="black"/>
<path d="M214.795 126.456L214.035 121.515L207.955 124.366C207.955 124.366 208.525 126.646 209.76 129.021C210.52 130.541 212.515 130.921 213.75 129.686C214.605 128.831 214.985 127.691 214.795 126.456Z" fill="#FFB573"/>
<path d="M210.52 118.285L205.96 121.42L207.86 124.366L214.035 121.515L210.52 118.285Z" fill="#FFB573"/>
<path d="M226.86 342.504L220.115 340.984L222.775 325.023L229.615 326.543L226.86 342.504Z" fill="#FFB573"/>
<path d="M219.925 340.129L227.62 341.839C227.905 341.934 228.095 342.124 228 342.409L226.955 348.585C226.86 349.25 226.1 349.725 225.53 349.535C222.87 348.87 221.635 348.395 218.31 347.634C216.22 347.159 210.52 346.019 207.575 345.449C204.82 344.784 205.485 342.029 206.72 342.029C212.42 342.124 216.41 341.364 218.69 340.319C219.07 340.034 219.545 340.034 219.925 340.129Z" fill="#263238"/>
<path opacity="0.2" d="M229.615 326.543L222.775 325.023L221.445 333.193L228.19 334.808L229.615 326.543Z" fill="black"/>
<path d="M247.57 176.905C247.57 176.905 236.265 223.744 232.94 243.506C229.235 265.167 218.975 330.533 218.975 330.533L231.42 333.383C231.42 333.383 247 271.058 252.605 250.061C258.685 227.259 271.32 199.707 271.32 177.38C263.72 177.38 247.57 176.905 247.57 176.905Z" fill="#263238"/>
<path d="M231.895 333.573L216.695 330.058L217.075 325.213L233.51 329.678L231.895 333.573Z" fill="#AFC95F"/>
<path d="M217.265 340.699C217.93 340.889 218.595 340.889 219.165 340.889C219.26 340.889 219.26 340.889 219.355 340.794C219.355 340.699 219.355 340.699 219.355 340.604C219.165 340.414 217.55 338.609 216.6 338.799C216.41 338.799 216.22 338.989 216.125 339.179C215.935 339.559 215.935 339.844 216.125 340.129C216.22 340.414 216.695 340.604 217.265 340.699ZM218.69 340.604C217.455 340.604 216.505 340.319 216.315 339.939C216.22 339.749 216.22 339.559 216.315 339.369C216.41 339.274 216.41 339.179 216.505 339.179C217.075 339.084 218.025 339.844 218.69 340.604Z" fill="#AFC95F"/>
<path d="M219.07 340.889C219.165 340.889 219.26 340.794 219.26 340.794C219.26 340.699 219.925 338.799 219.355 337.944C219.165 337.754 218.975 337.564 218.69 337.564C218.405 337.564 218.12 337.659 218.025 337.944C217.74 338.609 218.405 340.319 219.07 340.889C218.975 340.889 219.07 340.889 219.07 340.889ZM218.785 337.944C218.88 337.944 218.975 338.039 219.07 338.134C219.355 338.609 219.165 339.749 218.975 340.414C218.5 339.749 218.025 338.514 218.31 338.039C218.405 337.944 218.405 337.849 218.785 337.944C218.69 337.944 218.69 337.944 218.785 337.944Z" fill="#AFC95F"/>
<path d="M237.88 119.9C238.64 117.525 240.73 115.72 243.105 115.34C245.005 115.055 245.955 114.675 248.33 114.58C252.51 114.295 259.445 114.58 264.195 114.865C266.95 115.055 269.8 115.435 272.08 115.815H272.175C274.645 116.195 276.26 118.57 275.785 121.04C274.55 127.501 272.46 138.807 271.795 149.353C271.035 163.224 271.51 174.055 271.225 177.38L233.795 176.715C232.18 142.892 235.41 127.596 237.88 119.9Z" fill="white"/>
<path d="M263.245 114.2C261.345 121.515 249.375 134.436 247.855 154.673C248.425 165.789 247.95 173.39 249.28 180.8L272.175 180.23C272.555 176.715 269.895 165.409 271.605 153.913C273.22 142.797 275.595 127.596 276.925 120.85C277.4 118.285 275.69 115.72 273.125 115.34H273.03C270.655 114.96 267.71 114.58 264.765 114.295C264.29 114.2 263.72 114.2 263.245 114.2Z" fill="#263238"/>
<path opacity="0.2" d="M268.565 169.209C268.47 169.209 268.375 169.209 268.375 169.114C264.385 163.794 262.865 158.758 262.865 158.758C262.865 158.663 262.865 158.473 263.055 158.473C263.15 158.473 263.34 158.473 263.34 158.663C263.34 158.758 264.86 163.604 268.755 168.924C268.85 169.019 268.85 169.209 268.755 169.304C268.66 169.209 268.565 169.209 268.565 169.209Z" fill="white"/>
<path opacity="0.3" d="M271.415 129.306C269.8 135.957 270.37 145.172 271.7 153.533C273.125 144.127 275.025 131.871 276.355 124.271C274.74 123.32 272.65 124.081 271.415 129.306Z" fill="black"/>
<path d="M235.98 120.09C236.93 117.335 239.21 115.34 241.775 114.865C243.675 114.485 248.33 114.2 249.28 114.2C247.19 121.135 248.425 141.277 249.375 157.238C246.525 165.314 246.715 171.205 246.715 180.8L231.04 179.47C229.235 144.032 233.605 126.551 235.98 120.09Z" fill="#263238"/>
<path d="M249.09 114.485C253.745 113.44 254.6 110.589 254.315 107.454C254.22 106.694 254.125 105.934 254.03 105.079L259.92 100.329L264.195 96.9082C262.96 102.039 261.44 111.349 264.86 114.77C264.86 114.77 261.915 119.425 254.03 118.855C247.38 118.475 249.09 114.485 249.09 114.485Z" fill="#FFB573"/>
<path d="M256.025 117.81L254.695 119.045L258.78 120.565L258.305 119.045L256.025 117.81Z" fill="#E0E0E0"/>
<path d="M257.545 122.655C257.545 122.655 257.545 118.665 256.025 117.81C261.345 116.385 264.005 113.44 264.005 113.44L266.38 114.39C266.475 114.39 265.62 118.95 257.545 122.655Z" fill="#F5F5F5"/>
<path d="M253.84 117.525L254.695 119.045L250.42 119.425L251.37 118L253.84 117.525Z" fill="#E0E0E0"/>
<path d="M250.135 121.8C250.135 121.8 250.515 119.045 253.84 117.43C251.56 116.765 251.465 113.535 251.465 113.535L249.185 114.01C249.185 114.01 246.81 118.285 250.135 121.8Z" fill="#F5F5F5"/>
<path opacity="0.2" d="M254.03 105.174C254.22 105.934 254.315 106.789 254.315 107.549C256.5 107.169 259.445 104.889 259.73 102.704C259.825 101.849 259.92 101.089 259.825 100.519L254.03 105.174Z" fill="black"/>
<path d="M246.145 81.8969C243.77 86.1723 246.43 89.9726 246.43 89.9726L251.085 84.1771L246.145 81.8969Z" fill="#263238"/>
<path d="M264.86 88.3575C264.575 95.2931 264.67 99.3784 261.25 103.084C256.025 108.689 247.475 105.934 245.765 99.0934C244.15 92.9179 245.005 82.562 251.75 79.5217C258.4 76.4815 265.24 81.3269 264.86 88.3575Z" fill="#FFB573"/>
<path d="M269.135 81.1369C266.095 71.5411 236.17 66.5056 247.855 82.847L260.585 81.1369L261.06 84.3671C261.63 87.2174 263.625 91.8728 263.625 91.8728L263.055 94.818L263.625 99.6634C263.625 99.6634 268.945 93.7729 271.605 91.0177C275.595 86.7423 271.605 80.9469 269.135 81.1369Z" fill="#263238"/>
<path d="M246.335 83.037C249.66 85.5073 258.4 85.9823 258.4 85.9823C258.4 85.9823 257.355 83.7021 255.74 82.752C259.255 85.0322 262.295 87.5974 268.185 87.7874C266.95 84.6522 264.48 80.4718 259.065 78.0966C252.035 74.9614 240.16 78.4767 246.335 83.037Z" fill="#263238"/>
<path d="M267.805 72.6812C267.805 72.6812 266.475 73.5362 266.19 76.5765C265.905 79.6167 268.945 83.5121 268.945 83.5121L269.705 81.5169C266.855 77.9066 267.805 72.6812 267.805 72.6812Z" fill="#263238"/>
<path d="M266.855 93.5829C266.19 95.1031 265.05 96.2432 263.91 96.8132C262.2 97.6683 261.345 96.1482 261.725 94.248C262.105 92.5379 263.435 90.0676 265.24 90.0676C266.855 89.9726 267.615 91.7778 266.855 93.5829Z" fill="#FFB573"/>
<path d="M254.315 90.9227C254.315 91.4928 254.03 91.9678 253.65 91.9678C253.27 91.9678 252.985 91.5878 252.985 91.0177C252.985 90.4477 253.27 89.9726 253.65 89.9726C253.935 89.8776 254.22 90.3527 254.315 90.9227Z" fill="#263238"/>
<path d="M247.95 91.2077C247.95 91.7778 247.665 92.2528 247.285 92.2528C246.905 92.2528 246.62 91.8728 246.62 91.3027C246.62 90.7327 246.905 90.2577 247.285 90.2577C247.57 90.1627 247.855 90.6377 247.95 91.2077Z" fill="#263238"/>
<path d="M250.04 91.3027C250.04 91.3027 248.805 94.628 247.38 96.2432C248.425 97.0982 250.04 96.6232 250.04 96.6232V91.3027Z" fill="#ED893E"/>
<path d="M252.51 97.9533C254.695 97.5733 255.74 96.0531 255.74 95.9581C255.835 95.8631 255.74 95.7681 255.645 95.7681C255.55 95.6731 255.455 95.7681 255.455 95.8631C255.455 95.8631 254.315 97.6683 251.845 97.7633C251.75 97.7633 251.655 97.8583 251.655 97.9533C251.655 98.0483 251.75 98.1433 251.845 98.1433C252.035 98.0483 252.225 98.0483 252.51 97.9533Z" fill="#263238"/>
<path d="M257.165 88.4525C257.26 88.4525 257.26 88.4525 257.355 88.3575C257.545 88.2625 257.545 88.0725 257.45 87.8824C256.31 86.4573 254.79 86.6473 254.695 86.6473C254.505 86.6473 254.41 86.8374 254.41 87.0274C254.41 87.2174 254.6 87.3124 254.79 87.3124C254.885 87.3124 256.025 87.2174 256.88 88.3575C256.88 88.4525 256.975 88.4525 257.165 88.4525Z" fill="#263238"/>
<path d="M245.1 89.2126C245.195 89.2126 245.29 89.1176 245.385 89.0225C246.05 87.6924 247.19 87.4074 247.285 87.4074C247.475 87.4074 247.57 87.2174 247.57 87.0274C247.57 86.8374 247.38 86.7424 247.19 86.7424C247.095 86.7424 245.575 87.0274 244.815 88.7375C244.72 88.9275 244.815 89.1176 245.005 89.2126C245.005 89.2126 245.005 89.2126 245.1 89.2126Z" fill="#263238"/>
<path d="M278.065 119.425C278.73 120.85 279.205 122.18 279.775 123.51C280.345 124.841 280.82 126.171 281.295 127.596C282.245 130.351 283.195 133.106 283.955 135.862C285.57 141.467 286.805 147.262 287.28 153.438C287.66 159.424 287.565 165.029 287.28 170.729C286.995 176.43 286.52 182.035 285.855 187.641C285.665 189.351 284.145 190.491 282.435 190.301C281.01 190.111 279.965 188.971 279.775 187.641C279.11 182.13 278.635 176.525 278.16 171.014C277.875 168.259 277.685 165.504 277.4 162.749C277.115 159.994 276.83 157.333 276.45 154.768C275.69 149.733 274.17 144.697 272.46 139.567C271.605 137.002 270.75 134.531 269.8 131.966C268.945 129.401 267.9 126.836 266.95 124.461L266.855 124.366C265.62 121.23 267.14 117.62 270.37 116.385C273.22 114.96 276.735 116.48 278.065 119.425Z" fill="#263238"/>
<path d="M279.775 187.071L275.785 188.971L282.53 191.346C282.53 191.346 287.09 189.921 284.905 187.451L283.67 187.071C281.77 186.406 280.82 186.406 279.775 187.071Z" fill="#FFB573"/>
<path d="M273.505 193.151L280.63 194.576L282.53 191.346L275.785 188.876L273.505 193.151Z" fill="#FFB573"/>
<path d="M166.155 28.6924H134.235V29.7375H166.155V28.6924Z" fill="#AFC95F"/>
<path d="M116.565 34.2979L115.805 33.5378C118.75 30.4026 122.835 28.5974 127.205 28.5974V29.6425C123.12 29.7375 119.32 31.3526 116.565 34.2979Z" fill="#AFC95F"/>
<path d="M127.205 32.3977H188.1C195.13 32.3977 201.21 38.0982 201.59 45.1288L203.87 81.6119L204.63 93.4879L192.09 81.6119H130.245C123.215 81.6119 117.135 75.9114 116.755 68.8808L115.235 45.1288C114.855 38.0982 120.27 32.3977 127.205 32.3977Z" fill="#AFC95F"/>
<path d="M130.435 49.7842H188.006C189.146 49.7842 190.096 48.8341 190.001 47.694C189.906 46.5539 188.956 45.6039 187.721 45.6039H130.15C129.01 45.6039 128.06 46.5539 128.155 47.694C128.25 48.8341 129.295 49.7842 130.435 49.7842Z" fill="white"/>
<path d="M131.1 59.57H188.67C189.81 59.57 190.76 58.62 190.665 57.4799C190.57 56.3398 189.62 55.3897 188.385 55.3897H130.815C129.675 55.3897 128.725 56.3398 128.82 57.4799C128.915 58.62 129.96 59.57 131.1 59.57Z" fill="white"/>
<path d="M151.335 69.3559H189.335C190.475 69.3559 191.425 68.4058 191.33 67.2657C191.235 66.1256 190.285 65.1755 189.05 65.1755H151.05C149.91 65.1755 148.96 66.1256 149.055 67.2657C149.15 68.3108 150.1 69.3559 151.335 69.3559Z" fill="white"/>
<path d="M148.865 93.3929H87.9699C80.9399 93.3929 75.6199 99.0934 76.0949 106.124L77.8049 132.916L78.5649 144.792L89.6799 132.916H151.525C158.555 132.916 163.875 127.216 163.4 120.185L162.545 106.124C161.975 99.0934 155.8 93.3929 148.865 93.3929Z" fill="#AFC95F"/>
<path opacity="0.5" d="M148.865 93.3929H87.9699C80.9399 93.3929 75.6199 99.0934 76.0949 106.124L77.8049 132.916L78.5649 144.792L89.6799 132.916H151.525C158.555 132.916 163.875 127.216 163.4 120.185L162.545 106.124C161.975 99.0934 155.8 93.3929 148.865 93.3929Z" fill="white"/>
<path d="M147.82 110.779H90.2499C89.1099 110.779 88.0649 109.829 87.9699 108.689C87.8749 107.549 88.8249 106.599 89.9649 106.599H147.535C148.675 106.599 149.72 107.549 149.815 108.689C149.91 109.829 148.96 110.779 147.82 110.779Z" fill="white"/>
<path d="M128.82 120.565H90.8198C89.6798 120.565 88.6348 119.615 88.5398 118.475C88.4448 117.335 89.3948 116.385 90.5348 116.385H128.535C129.675 116.385 130.72 117.335 130.815 118.475C130.91 119.615 130.055 120.565 128.82 120.565Z" fill="white"/>
<path d="M134.33 144.697H195.225C202.255 144.697 208.335 150.398 208.715 157.428L210.52 185.931L211.28 197.807L198.74 185.931H136.895C129.865 185.931 123.785 180.23 123.405 173.2L122.36 157.333C121.98 150.398 127.395 144.697 134.33 144.697Z" fill="#AFC95F"/>
<path d="M161.5 163.794C161.69 166.264 163.78 168.259 166.25 168.259C168.72 168.259 170.62 166.264 170.43 163.794C170.24 161.324 168.15 159.328 165.68 159.328C163.305 159.328 161.405 161.324 161.5 163.794Z" fill="white"/>
<path d="M146.585 165.314C146.775 167.784 148.865 169.779 151.335 169.779C153.805 169.779 155.705 167.784 155.515 165.314C155.325 162.844 153.235 160.849 150.765 160.849C148.295 160.849 146.49 162.844 146.585 165.314Z" fill="white"/>
<path d="M176.794 167.594C176.984 170.064 179.074 172.06 181.544 172.06C184.014 172.06 185.914 170.064 185.724 167.594C185.534 165.124 183.444 163.129 180.974 163.129C178.504 163.034 176.604 165.124 176.794 167.594Z" fill="white"/>
</svg>
