<svg width="23" height="18" viewBox="0 0 23 18" fill="none" xmlns="http://www.w3.org/2000/svg">
<path d="M9.80113 16.6502C9.77164 16.5764 9.76182 16.5123 9.77165 16.4581C9.78147 16.4089 9.74708 16.3645 9.67336 16.33C9.59966 16.2956 9.56034 16.2709 9.56034 16.2512C9.56034 16.2315 9.50629 16.2167 9.39818 16.2069C9.29007 16.197 9.23602 16.1921 9.23602 16.1921H9.0542H8.90187H4.86255C4.24339 16.1921 3.71759 15.9704 3.27533 15.532C2.83798 15.0936 2.61685 14.5616 2.61685 13.9409V4.03941C2.61685 3.4335 2.83798 2.90148 3.28024 2.46305C3.71759 2.02463 4.2483 1.80296 4.86747 1.80296H9.35887C9.48172 1.80296 9.57508 1.7734 9.6488 1.70936C9.71759 1.65025 9.76673 1.55665 9.7913 1.4335C9.81587 1.31034 9.83061 1.20197 9.83553 1.10345C9.84044 1.00493 9.83553 0.881773 9.83061 0.729064C9.82078 0.581281 9.81587 0.487685 9.81587 0.448276C9.81587 0.325123 9.77164 0.221675 9.68319 0.133005C9.59474 0.044335 9.49155 0 9.3687 0H4.86255C3.75199 0 2.79867 0.394089 2.00752 1.18719C1.21636 1.9803 0.823242 2.93596 0.823242 4.04926V13.9507C0.823242 15.064 1.21636 16.0197 2.00752 16.8128C2.79867 17.6059 3.75199 18 4.86255 18H9.35395C9.4768 18 9.57017 17.9704 9.64388 17.9064C9.71268 17.8473 9.76182 17.7537 9.78639 17.6305C9.81096 17.5074 9.8257 17.399 9.83061 17.3005C9.83553 17.202 9.83061 17.0788 9.8257 16.9261C9.80604 16.7833 9.80113 16.6897 9.80113 16.6502Z" fill="#9BB353"/>
<path d="M22.5529 8.3695L14.9215 0.719257C14.7446 0.541917 14.5333 0.453247 14.2925 0.453247C14.0517 0.453247 13.8404 0.541917 13.6586 0.719257C13.4817 0.896597 13.3932 1.10842 13.3932 1.3498V5.39906H7.10822C6.86252 5.39906 6.65613 5.48773 6.47922 5.66507C6.30232 5.84241 6.21387 6.05423 6.21387 6.30054V11.6996C6.21387 11.9409 6.30232 12.1528 6.47922 12.3301C6.65613 12.5074 6.86743 12.5961 7.10822 12.5961H13.3932V16.6503C13.3932 16.8917 13.4817 17.1035 13.6586 17.2808C13.8355 17.4582 14.0468 17.5468 14.2925 17.5468C14.5333 17.5468 14.7446 17.4582 14.9215 17.2808L22.5529 9.63059C22.7298 9.45325 22.8183 9.24143 22.8183 9.00005C22.8232 8.75867 22.7348 8.54684 22.5529 8.3695Z" fill="#9BB353"/>
</svg>
