<svg width="20" height="16" viewBox="0 0 20 16" fill="none" xmlns="http://www.w3.org/2000/svg">
<path d="M17.5735 4.13057V2.20902L10.0755 6.99055L2.57746 2.20902V4.13057L10.0755 8.86742L17.5735 4.13057ZM17.5735 0.287476C18.0704 0.287476 18.4943 0.48112 18.8451 0.868409C19.2251 1.2557 19.4151 1.70257 19.4151 2.20902V13.6489C19.4151 14.1554 19.2251 14.6023 18.8451 14.9896C18.4943 15.3769 18.0704 15.5705 17.5735 15.5705H2.57746C2.08051 15.5705 1.64203 15.3769 1.26202 14.9896C0.911232 14.6023 0.73584 14.1554 0.73584 13.6489V2.20902C0.73584 1.70257 0.911232 1.2557 1.26202 0.868409C1.64203 0.48112 2.08051 0.287476 2.57746 0.287476H17.5735Z" fill="#AFC95F"/>
</svg>
