<svg width="21" height="21" viewBox="0 0 21 21" fill="none" xmlns="http://www.w3.org/2000/svg">
<path d="M20.4633 2.60167L18.8417 0.641667C18.5267 0.245 18.0483 0 17.5 0H3.5C2.95167 0 2.47333 0.245 2.14667 0.641667L0.536667 2.60167C0.198333 2.99833 0 3.52333 0 4.08333V18.6667C0 19.95 1.05 21 2.33333 21H18.6667C19.95 21 21 19.95 21 18.6667V4.08333C21 3.52333 20.8017 2.99833 20.4633 2.60167ZM10.5 16.9167L4.08333 10.5H8.16667V8.16667H12.8333V10.5H16.9167L10.5 16.9167ZM2.47333 2.33333L3.41833 1.16667H17.4183L18.515 2.33333H2.47333Z" fill="#AFC95F"/>
</svg>
