<svg width="207" height="66" viewBox="0 0 207 66" fill="none" xmlns="http://www.w3.org/2000/svg">
<path d="M109.776 12.2183V36.8791H102.801V27.2614H93.2885V36.8791H86.313V12.2183H93.2885V21.4837H102.801V12.2183H109.776ZM124.068 37.3723C122.071 37.3723 120.134 37.1257 118.255 36.6325C116.376 36.1393 114.849 35.4817 113.675 34.6596L115.965 29.5161C117.069 30.2442 118.349 30.8313 119.805 31.2776C121.261 31.7238 122.694 31.9469 124.103 31.9469C126.78 31.9469 128.119 31.2776 128.119 29.9389C128.119 29.2343 127.731 28.7176 126.956 28.3887C126.205 28.0364 124.983 27.6724 123.292 27.2966C121.437 26.8973 119.887 26.4746 118.642 26.0283C117.397 25.5586 116.329 24.8188 115.436 23.8089C114.544 22.7989 114.097 21.4367 114.097 19.7222C114.097 18.2191 114.508 16.8686 115.331 15.6708C116.153 14.4495 117.374 13.4865 118.994 12.7819C120.638 12.0773 122.647 11.725 125.019 11.725C126.639 11.725 128.236 11.9129 129.81 12.2887C131.384 12.641 132.769 13.1695 133.967 13.8741L131.818 19.0528C129.469 17.7846 127.191 17.1504 124.983 17.1504C123.598 17.1504 122.588 17.3618 121.954 17.7846C121.32 18.1838 121.003 18.7123 121.003 19.3699C121.003 20.0275 121.378 20.5208 122.13 20.8496C122.881 21.1784 124.091 21.5189 125.759 21.8712C127.637 22.2705 129.188 22.705 130.409 23.1747C131.654 23.621 132.722 24.3491 133.615 25.359C134.531 26.3454 134.989 27.6959 134.989 29.4104C134.989 30.8901 134.578 32.2288 133.756 33.4266C132.934 34.6244 131.701 35.5874 130.057 36.3154C128.413 37.02 126.416 37.3723 124.068 37.3723ZM143.821 17.7493H136.246V12.2183H158.335V17.7493H150.796V36.8791H143.821V17.7493ZM94.475 62.2342C92.6149 62.2342 90.9408 61.8453 89.4527 61.0674C87.9815 60.2726 86.8231 59.1735 85.9776 57.7699C85.1321 56.3664 84.7093 54.7768 84.7093 53.0012C84.7093 51.2256 85.1321 49.6361 85.9776 48.2325C86.8231 46.829 87.9815 45.7382 89.4527 44.9604C90.9408 44.1656 92.6149 43.7682 94.475 43.7682C96.0984 43.7682 97.5612 44.0557 98.8633 44.6306C100.165 45.2056 101.248 46.0342 102.11 47.1164L98.914 50.0081C97.7641 48.6214 96.369 47.9281 94.7287 47.9281C93.7648 47.9281 92.9024 48.1395 92.1414 48.5623C91.3974 48.985 90.814 49.5853 90.3912 50.3632C89.9854 51.1242 89.7824 52.0035 89.7824 53.0012C89.7824 53.9989 89.9854 54.8867 90.3912 55.6646C90.814 56.4255 91.3974 57.0174 92.1414 57.4402C92.9024 57.8629 93.7648 58.0743 94.7287 58.0743C96.369 58.0743 97.7641 57.381 98.914 55.9943L102.11 58.886C101.248 59.9683 100.165 60.7969 98.8633 61.3718C97.5612 61.9468 96.0984 62.2342 94.475 62.2342ZM111.304 62.1074C109.833 62.1074 108.505 61.803 107.322 61.1943C106.138 60.5855 105.208 59.74 104.531 58.6577C103.872 57.5754 103.542 56.3495 103.542 54.9797C103.542 53.6269 103.872 52.4094 104.531 51.3271C105.208 50.2448 106.129 49.4078 107.296 48.8159C108.48 48.2071 109.816 47.9028 111.304 47.9028C112.792 47.9028 114.128 48.2071 115.312 48.8159C116.495 49.4078 117.417 50.2448 118.077 51.3271C118.736 52.3924 119.066 53.61 119.066 54.9797C119.066 56.3495 118.736 57.5754 118.077 58.6577C117.417 59.74 116.495 60.5855 115.312 61.1943C114.128 61.803 112.792 62.1074 111.304 62.1074ZM111.304 58.2772C112.149 58.2772 112.843 57.9898 113.384 57.4148C113.925 56.8229 114.196 56.0112 114.196 54.9797C114.196 53.9651 113.925 53.1703 113.384 52.5954C112.843 52.0204 112.149 51.7329 111.304 51.7329C110.458 51.7329 109.765 52.0204 109.224 52.5954C108.683 53.1703 108.412 53.9651 108.412 54.9797C108.412 56.0112 108.683 56.8229 109.224 57.4148C109.765 57.9898 110.458 58.2772 111.304 58.2772ZM130.957 47.9028C132.665 47.9028 134.035 48.4101 135.066 49.4247C136.115 50.4393 136.639 51.9697 136.639 54.0158V61.8791H131.819V54.8022C131.819 52.9251 131.067 51.9866 129.562 51.9866C128.733 51.9866 128.065 52.2572 127.558 52.7983C127.068 53.3394 126.822 54.1511 126.822 55.2334V61.8791H122.003V48.131H126.594V49.6276C127.135 49.0696 127.778 48.6468 128.522 48.3593C129.266 48.0549 130.078 47.9028 130.957 47.9028ZM149.323 47.9028C151.031 47.9028 152.401 48.4101 153.432 49.4247C154.481 50.4393 155.005 51.9697 155.005 54.0158V61.8791H150.186V54.8022C150.186 52.9251 149.433 51.9866 147.928 51.9866C147.1 51.9866 146.432 52.2572 145.924 52.7983C145.434 53.3394 145.189 54.1511 145.189 55.2334V61.8791H140.369V48.131H144.96V49.6276C145.501 49.0696 146.144 48.6468 146.888 48.3593C147.632 48.0549 148.444 47.9028 149.323 47.9028ZM172.986 55.0304C172.986 55.0643 172.961 55.4617 172.91 56.2226H162.916C163.119 56.9329 163.508 57.4824 164.083 57.8714C164.675 58.2434 165.41 58.4294 166.29 58.4294C166.949 58.4294 167.516 58.3364 167.989 58.1504C168.48 57.9644 168.97 57.66 169.46 57.2372L171.997 59.8752C170.661 61.3634 168.708 62.1074 166.137 62.1074C164.531 62.1074 163.119 61.803 161.901 61.1943C160.684 60.5855 159.737 59.74 159.06 58.6577C158.401 57.5754 158.071 56.3495 158.071 54.9797C158.071 53.6269 158.393 52.4178 159.035 51.3525C159.695 50.2702 160.599 49.4247 161.749 48.8159C162.899 48.2071 164.193 47.9028 165.63 47.9028C167 47.9028 168.243 48.1902 169.359 48.7652C170.475 49.3232 171.354 50.1434 171.997 51.2256C172.656 52.291 172.986 53.5593 172.986 55.0304ZM165.656 51.3271C164.911 51.3271 164.286 51.5385 163.778 51.9612C163.288 52.384 162.975 52.9589 162.84 53.6861H168.471C168.336 52.9589 168.014 52.384 167.507 51.9612C167.017 51.5385 166.4 51.3271 165.656 51.3271ZM182.939 62.1074C181.417 62.1074 180.056 61.803 178.855 61.1943C177.655 60.5855 176.716 59.74 176.04 58.6577C175.38 57.5754 175.05 56.3495 175.05 54.9797C175.05 53.61 175.38 52.3924 176.04 51.3271C176.716 50.2448 177.655 49.4078 178.855 48.8159C180.056 48.2071 181.417 47.9028 182.939 47.9028C184.495 47.9028 185.839 48.241 186.972 48.9174C188.105 49.5769 188.908 50.4985 189.382 51.6822L185.653 53.5846C185.027 52.3502 184.114 51.7329 182.914 51.7329C182.051 51.7329 181.333 52.0204 180.758 52.5954C180.2 53.1703 179.921 53.9651 179.921 54.9797C179.921 56.0112 180.2 56.8229 180.758 57.4148C181.333 57.9898 182.051 58.2772 182.914 58.2772C184.114 58.2772 185.027 57.66 185.653 56.4255L189.382 58.328C188.908 59.5117 188.105 60.4417 186.972 61.1182C185.839 61.7777 184.495 62.1074 182.939 62.1074ZM201.611 61.3211C201.205 61.5747 200.706 61.7692 200.114 61.9045C199.539 62.0398 198.922 62.1074 198.262 62.1074C196.47 62.1074 195.092 61.6677 194.128 60.7884C193.164 59.9091 192.682 58.5985 192.682 56.8568V52.2402H190.678V48.6384H192.682V45.0618H197.501V48.6384H200.647V52.2402H197.501V56.806C197.501 57.2964 197.628 57.6854 197.882 57.9728C198.152 58.2434 198.508 58.3787 198.947 58.3787C199.505 58.3787 199.996 58.2349 200.418 57.9475L201.611 61.3211Z" fill="white"/>
<path d="M11.1932 43.1333C32.15 33.8958 60.8448 49.6855 55.2025 59.7286C54.0741 61.7694 51.656 62.7361 49.829 62.2528C54.504 65.7437 66.1646 66.1733 71.968 62.3602C69.2812 36.0978 36.6101 23.9064 11.1932 43.1333Z" fill="#FDFDFD"/>
<path opacity="0.7" d="M47.0886 19.2339C44.6167 42.0054 16.5669 58.9767 10.7097 49.041C9.52753 47.0001 9.84994 44.4222 11.1933 43.1333C5.81979 45.4427 -0.359783 55.2709 0.0163649 62.199C24.1436 73.0477 51.0113 50.867 47.0886 19.2339Z" fill="#FDFDFD"/>
<path d="M49.7754 62.2527C31.2904 48.7187 30.6456 16.0115 42.1987 15.8504C44.5631 15.7967 46.605 17.4079 47.0886 19.2339C47.7335 13.4873 42.3062 3.1757 36.1266 0.06073C14.6862 15.4745 20.4359 49.8465 49.7754 62.2527Z" fill="#FDFDFD"/>
</svg>
