<svg width="25" height="25" viewBox="0 0 25 25" fill="none" xmlns="http://www.w3.org/2000/svg">
<g opacity="0.5">
<path d="M22.7994 17.849V20.849C22.8005 21.1275 22.7435 21.4032 22.6319 21.6583C22.5203 21.9135 22.3567 22.1426 22.1514 22.3309C21.9462 22.5191 21.7039 22.6625 21.4401 22.7517C21.1763 22.8409 20.8967 22.8741 20.6194 22.849C17.5422 22.5146 14.5864 21.4631 11.9894 19.779C9.5732 18.2437 7.52471 16.1952 5.98937 13.779C4.29935 11.1702 3.24761 8.19999 2.91937 5.10899C2.89438 4.83246 2.92725 4.55375 3.01587 4.29062C3.1045 4.02748 3.24694 3.78568 3.43414 3.58061C3.62133 3.37554 3.84918 3.2117 4.10316 3.09951C4.35715 2.98733 4.63171 2.92925 4.90937 2.92899H7.90937C8.39468 2.92421 8.86516 3.09607 9.23313 3.41252C9.6011 3.72898 9.84145 4.16844 9.90937 4.64899C10.036 5.60906 10.2708 6.55172 10.6094 7.45899C10.7439 7.81691 10.773 8.20591 10.6933 8.57987C10.6135 8.95384 10.4282 9.2971 10.1594 9.56899L8.88937 10.839C10.3129 13.3425 12.3858 15.4154 14.8894 16.839L16.1594 15.569C16.4313 15.3001 16.7745 15.1148 17.1485 15.0351C17.5225 14.9553 17.9114 14.9844 18.2694 15.119C19.1766 15.4575 20.1193 15.6924 21.0794 15.819C21.5651 15.8875 22.0088 16.1322 22.3259 16.5065C22.643 16.8808 22.8115 17.3586 22.7994 17.849Z" stroke="white" stroke-width="1.5" stroke-linecap="round" stroke-linejoin="round"/>
</g>
</svg>
