<svg width="29" height="29" viewBox="0 0 29 29" fill="none" xmlns="http://www.w3.org/2000/svg">
<path d="M10.252 16.3125L6.06055 21.75H22.9395L17.502 14.5L13.3105 19.9375L10.252 16.3125ZM25.375 22.9395C25.375 23.5814 25.1296 24.1478 24.6387 24.6387C24.1478 25.1296 23.5814 25.375 22.9395 25.375H6.06055C5.41862 25.375 4.85221 25.1296 4.36133 24.6387C3.87044 24.1478 3.625 23.5814 3.625 22.9395V6.06055C3.625 5.41862 3.87044 4.85221 4.36133 4.36133C4.85221 3.87044 5.41862 3.625 6.06055 3.625H22.9395C23.5814 3.625 24.1478 3.87044 24.6387 4.36133C25.1296 4.85221 25.375 5.41862 25.375 6.06055V22.9395Z" fill="#AFC95F"/>
</svg>
