<svg width="53" height="53" viewBox="0 0 53 53" fill="none" xmlns="http://www.w3.org/2000/svg">
<g opacity="0.5">
<path fill-rule="evenodd" clip-rule="evenodd" d="M0 8.83333V0H8.83333V2.20833H2.20833V8.83333H0ZM35.3333 0H17.6667V2.20833H35.3333V0ZM44.1667 0V2.20833H50.7917V8.83333H53V0H44.1667ZM53 17.6667H50.7917V35.3333H53V17.6667ZM53 44.1667H50.7917V50.7917H44.1667V53H53V44.1667ZM35.3333 53V50.7917H17.6667V53H35.3333ZM8.83333 53V50.7917H2.20833V44.1667H0V53H8.83333ZM0 35.3333H2.20833V17.6667H0V35.3333Z" fill="#666666"/>
</g>
<path d="M22.252 28.3125L18.0605 33.75H34.9395L29.502 26.5L25.3105 31.9375L22.252 28.3125ZM37.375 34.9395C37.375 35.5814 37.1296 36.1478 36.6387 36.6387C36.1478 37.1296 35.5814 37.375 34.9395 37.375H18.0605C17.4186 37.375 16.8522 37.1296 16.3613 36.6387C15.8704 36.1478 15.625 35.5814 15.625 34.9395V18.0605C15.625 17.4186 15.8704 16.8522 16.3613 16.3613C16.8522 15.8704 17.4186 15.625 18.0605 15.625H34.9395C35.5814 15.625 36.1478 15.8704 36.6387 16.3613C37.1296 16.8522 37.375 17.4186 37.375 18.0605V34.9395Z" fill="#AFC95F"/>
</svg>
